<svg width="264" height="204" viewBox="0 0 264 204" fill="none" xmlns="http://www.w3.org/2000/svg">
<path d="M81.6955 142.518C116.528 142.518 144.766 114.28 144.766 79.4474C144.766 44.6145 116.528 16.377 81.6955 16.377C46.8627 16.377 18.625 44.6145 18.625 79.4474C18.625 114.28 46.8627 142.518 81.6955 142.518Z" fill="#B7E1F1"/>
<path d="M146.828 46.1797H67.0226C61.4635 46.1797 56.957 50.6862 56.957 56.2453V186.072C56.957 191.631 61.4635 196.138 67.0226 196.138H146.828C152.387 196.138 156.894 191.631 156.894 186.072V56.2453C156.894 50.6862 152.387 46.1797 146.828 46.1797Z" fill="white"/>
<path d="M146.828 196.548H67.0137C61.2306 196.548 56.5356 191.845 56.5356 186.061V56.2349C56.5356 50.4517 61.2393 45.748 67.0137 45.748H146.828C152.611 45.748 157.306 50.4517 157.306 56.2349V186.061C157.306 191.845 152.602 196.548 146.828 196.548ZM67.0225 46.5905C61.7044 46.5905 57.3781 50.9168 57.3781 56.2349V186.061C57.3781 191.38 61.7044 195.706 67.0225 195.706H146.837C152.155 195.706 156.481 191.38 156.481 186.061V56.2349C156.481 50.9168 152.155 46.5905 146.837 46.5905H67.0225Z" fill="#00497A"/>
<path d="M150.286 172.697V58.8685C150.286 55.1075 147.237 52.0586 143.476 52.0586L70.3754 52.0586C66.6144 52.0586 63.5655 55.1075 63.5655 58.8685L63.5655 172.697C63.5655 176.458 66.6144 179.507 70.3754 179.507H143.476C147.237 179.507 150.286 176.458 150.286 172.697Z" fill="#00497A"/>
<path d="M127.004 50.9609V58.5518C127.004 60.9036 125.1 62.808 122.748 62.808H91.1033C88.7514 62.808 86.8471 60.9036 86.8471 58.5518V50.9609H127.004Z" fill="white"/>
<path d="M127.197 143.816H86.6538V169.871H127.197C134.393 169.871 140.22 164.035 140.22 156.848C140.22 149.661 134.385 143.825 127.197 143.825V143.816Z" fill="white"/>
<path d="M95.8646 166.052C100.95 160.967 100.951 152.721 95.8647 147.635C90.7789 142.549 82.5332 142.549 77.4473 147.635C72.3615 152.721 72.3616 160.967 77.4474 166.052C82.5332 171.138 90.7788 171.138 95.8646 166.052Z" fill="#F2604A"/>
<path d="M127.197 170.293H86.6536C79.2382 170.293 73.2095 164.264 73.2095 156.849C73.2095 149.433 79.2382 143.404 86.6536 143.404H127.197C134.613 143.404 140.641 149.433 140.641 156.849C140.641 164.264 134.613 170.293 127.197 170.293ZM86.6536 144.238C79.7033 144.238 74.0431 149.898 74.0431 156.849C74.0431 163.799 79.7033 169.459 86.6536 169.459H127.197C134.147 169.459 139.808 163.799 139.808 156.849C139.808 149.898 134.147 144.238 127.197 144.238H86.6536Z" fill="#00497A"/>
<path d="M238.946 31.795C220.974 21.3432 197.947 27.0385 186.916 44.6688L183.116 50.7415C183.116 50.7415 149.417 58.4817 140.686 71.7592C134.709 80.842 135.955 95.5324 136.429 102.799C130.041 112.013 121.862 119.227 114.912 128.029C111.401 132.478 107.838 136.874 104.24 141.253C101.222 144.922 97.8694 148.151 97.536 153.144C97.2551 157.322 99.0189 161.455 102.222 164.149C105.434 166.843 110.076 167.984 114.157 166.834C117.439 165.904 120.107 163.587 122.476 161.227C125.021 158.691 127.645 156.268 130.269 153.794C133.042 151.179 144.652 140.569 144.793 139.814C144.169 143.228 144.599 147.826 149.812 151.065C153.077 153.092 156.218 153.223 158.913 152.548C159.738 156.11 161.651 160.016 165.951 162.087C170.505 164.289 174.463 163.184 177.289 161.525C176.622 165.246 178.263 170.072 182.66 172.196C191.049 176.242 197.631 168.159 203.598 159.068C205.766 155.759 252.478 85.2034 252.478 85.2034C263.746 66.7658 257.656 42.6592 238.964 31.795H238.946Z" fill="white"/>
<path d="M187.074 173.679C185.599 173.679 184.064 173.328 182.458 172.556C178.201 170.502 176.429 165.992 176.745 162.271C173.147 164.122 169.364 164.193 165.749 162.446C162.133 160.7 159.72 157.541 158.588 153.039C155.446 153.723 152.419 153.179 149.575 151.406C144.845 148.467 143.924 144.439 144.178 141.165C142.721 142.701 139.51 145.746 133.305 151.503C132.112 152.609 131.129 153.521 130.541 154.074C129.944 154.636 129.347 155.198 128.751 155.759C126.767 157.62 124.723 159.541 122.757 161.498C120.344 163.903 117.65 166.255 114.253 167.211C110.155 168.37 105.32 167.29 101.941 164.447C98.6241 161.665 96.8163 157.418 97.1059 153.1C97.4042 148.642 99.9578 145.632 102.669 142.447C103.082 141.964 103.495 141.473 103.907 140.972C107.777 136.269 111.261 131.951 114.578 127.756C117.544 124 120.783 120.481 123.907 117.085C128.066 112.566 132.357 107.897 135.999 102.667L135.956 101.956C135.455 94.4088 134.516 80.3678 140.343 71.522C148.838 58.6043 179.983 51.0484 182.861 50.3727L186.573 44.4491C191.962 35.8314 200.369 29.7412 210.232 27.3016C220.096 24.862 230.372 26.3275 239.166 31.4349C248.301 36.7441 254.76 45.3091 257.349 55.5503C259.937 65.7914 258.332 76.4012 252.82 85.4138C252.347 86.1334 206.073 156.014 203.932 159.287C199.254 166.413 193.822 173.679 187.082 173.679H187.074ZM177.262 161.095C177.341 161.095 177.429 161.121 177.499 161.165C177.631 161.261 177.701 161.419 177.675 161.577C177.043 165.123 178.605 169.774 182.817 171.801C191.154 175.82 197.718 167.211 203.221 158.822C205.371 155.549 251.636 85.6682 252.101 84.9574C257.489 76.1467 259.06 65.7652 256.524 55.7434C253.988 45.7217 247.669 37.3409 238.727 32.137C220.842 21.7379 198.236 27.328 187.258 44.8704L183.458 50.9431C183.396 51.0396 183.309 51.1011 183.195 51.1274C182.861 51.2064 149.558 58.9816 141.019 71.9608C135.35 80.5784 136.271 94.4351 136.772 101.886L136.824 102.746C136.824 102.842 136.807 102.93 136.754 103.009C133.068 108.327 128.716 113.057 124.512 117.629C121.397 121.016 118.176 124.518 115.227 128.256C111.91 132.451 108.418 136.778 104.548 141.49C104.135 141.99 103.714 142.482 103.301 142.973C100.686 146.053 98.2115 148.967 97.9307 153.144C97.6587 157.207 99.3523 161.182 102.468 163.798C105.644 166.465 110.182 167.483 114.017 166.395C117.228 165.491 119.826 163.21 122.16 160.893C124.126 158.927 126.179 157.005 128.171 155.136C128.768 154.574 129.365 154.013 129.962 153.451C130.55 152.898 131.541 151.977 132.735 150.871C136.368 147.501 143.906 140.498 144.371 139.656C144.433 139.454 144.635 139.331 144.845 139.366C145.073 139.41 145.223 139.621 145.179 139.849C144.591 143.052 144.951 147.528 150.005 150.669C152.77 152.389 155.727 152.872 158.79 152.1C158.904 152.073 159.018 152.091 159.106 152.152C159.202 152.214 159.272 152.302 159.299 152.416C160.325 156.874 162.625 159.989 166.108 161.674C169.759 163.438 173.445 163.254 177.052 161.13C177.113 161.095 177.192 161.068 177.262 161.068V161.095Z" fill="#00497A"/>
<path d="M238.946 31.7957C222.211 22.0636 201.097 26.3373 189.364 41.1944C202.36 36.9558 217.016 38.0703 229.723 45.4593C243.711 53.5943 252.215 67.4774 254.04 82.3521C263.079 64.3445 256.69 42.1071 238.946 31.7957Z" fill="#00497A"/>
<path d="M136.421 103.211C136.324 103.211 136.236 103.176 136.157 103.115C135.982 102.966 135.955 102.702 136.096 102.527L151.006 84.3175C151.155 84.1419 151.418 84.1157 151.594 84.2561C151.769 84.4053 151.795 84.6685 151.655 84.844L136.745 103.053C136.666 103.15 136.544 103.203 136.421 103.203V103.211Z" fill="#00497A"/>
<path d="M144.775 140.218C144.669 140.218 144.564 140.183 144.485 140.104C144.318 139.946 144.318 139.683 144.476 139.516L151.032 132.741C151.19 132.575 151.453 132.575 151.62 132.733C151.786 132.891 151.786 133.154 151.628 133.321L145.073 140.095C144.994 140.183 144.88 140.218 144.775 140.218Z" fill="#00497A"/>
<path d="M158.895 152.951C158.807 152.951 158.719 152.925 158.64 152.864C158.456 152.723 158.421 152.46 158.562 152.276L165.292 143.561C165.433 143.377 165.696 143.342 165.88 143.483C166.065 143.623 166.1 143.886 165.959 144.07L159.229 152.785C159.15 152.89 159.027 152.943 158.895 152.943V152.951Z" fill="#00497A"/>
<path d="M177.262 161.929C177.166 161.929 177.078 161.902 176.999 161.832C176.824 161.683 176.797 161.429 176.938 161.244L183.186 153.566C183.335 153.39 183.598 153.364 183.774 153.504C183.949 153.653 183.976 153.908 183.835 154.092L177.587 161.771C177.508 161.876 177.385 161.929 177.262 161.929Z" fill="#00497A"/>
<path d="M175.428 39.9304C175.428 33.8314 170.487 28.8906 164.388 28.8906C158.289 28.8906 153.349 33.8314 153.349 39.9304C153.349 46.0295 158.289 50.9701 164.388 50.9701C170.487 50.9701 175.428 46.0295 175.428 39.9304Z" fill="#B7E1F1"/>
<path d="M47.0933 150.52C47.0933 144.421 42.1525 139.48 36.0535 139.48C29.9544 139.48 25.0137 144.421 25.0137 150.52C25.0137 156.619 29.9544 161.56 36.0535 161.56C42.1525 161.56 47.0933 156.619 47.0933 150.52Z" fill="#B7E1F1"/>
<path d="M106.926 118.709C119.687 118.709 130.032 108.363 130.032 95.6023C130.032 82.8411 119.687 72.4961 106.926 72.4961C94.1644 72.4961 83.8193 82.8411 83.8193 95.6023C83.8193 108.363 94.1644 118.709 106.926 118.709Z" fill="white"/>
<path d="M106.925 119.131C93.9551 119.131 83.3979 108.574 83.3979 95.6036C83.3979 82.6332 93.9551 72.0762 106.925 72.0762C119.896 72.0762 130.453 82.6332 130.453 95.6036C130.453 108.574 119.896 119.131 106.925 119.131ZM106.925 72.9098C94.4114 72.9098 84.2316 83.0895 84.2316 95.6036C84.2316 108.118 94.4114 118.297 106.925 118.297C119.439 118.297 129.619 108.118 129.619 95.6036C129.619 83.0895 119.439 72.9098 106.925 72.9098Z" fill="#00497A"/>
<path d="M102.757 102.422C102.652 102.422 102.546 102.387 102.467 102.308L94.9117 94.9717C94.7449 94.8137 94.7449 94.5504 94.9117 94.3837C95.0696 94.2169 95.3328 94.2169 95.4996 94.3837L102.766 101.448L118.22 86.7226C118.386 86.5646 118.65 86.5734 118.808 86.7401C118.966 86.9069 118.957 87.1702 118.79 87.3281L103.047 102.326C102.968 102.405 102.862 102.44 102.757 102.44V102.422Z" fill="#F2604A"/>
<path d="M109.39 39.6132C117.605 38.2799 123.183 30.5401 121.849 22.3259C120.516 14.1117 112.776 8.53367 104.562 9.86702C96.3478 11.2004 90.7699 18.9402 92.1032 27.1544C93.4366 35.3685 101.176 40.9466 109.39 39.6132Z" fill="#00497A"/>
<path d="M106.926 16.5L109.646 22.0023L115.719 22.8799L111.322 27.1624L112.358 33.2176L106.926 30.3567L101.493 33.2176L102.529 27.1624L98.1323 22.8799L104.214 22.0023L106.926 16.5Z" fill="white"/>
<path d="M26.3303 92.4002C37.6327 92.4002 46.7951 83.2379 46.7951 71.9355C46.7951 60.6331 37.6327 51.4707 26.3303 51.4707C15.028 51.4707 5.86572 60.6331 5.86572 71.9355C5.86572 83.2379 15.028 92.4002 26.3303 92.4002Z" fill="#F2604A"/>
<path d="M26.3301 92.8131C14.8165 92.8131 5.44434 83.4407 5.44434 71.927C5.44434 60.4134 14.8165 51.041 26.3301 51.041C37.8438 51.041 47.2162 60.4134 47.2162 71.927C47.2162 83.4407 37.8438 92.8131 26.3301 92.8131ZM26.3301 51.8835C15.2729 51.8835 6.27798 60.8785 6.27798 71.9358C6.27798 82.9931 15.2729 91.9881 26.3301 91.9881C37.3874 91.9881 46.3825 82.9931 46.3825 71.9358C46.3825 60.8785 37.3874 51.8835 26.3301 51.8835Z" fill="#00497A"/>
<path d="M26.3305 58.8867L30.5691 67.4781L40.0469 68.8558L33.1843 75.5341L34.8078 84.9766L26.3305 80.5187L17.8533 84.9766L19.4769 75.5341L12.6143 68.8558L22.092 67.4781L26.3305 58.8867Z" fill="white"/>
<path d="M47.0934 113.908C46.9881 113.908 46.8827 113.864 46.795 113.785L41.0118 108.002C40.845 107.835 40.845 107.572 41.0118 107.414C41.1785 107.247 41.4419 107.247 41.5999 107.414L47.3829 113.197C47.5496 113.364 47.5496 113.627 47.3829 113.785C47.3039 113.864 47.1987 113.908 47.0846 113.908H47.0934Z" fill="#00497A"/>
<path d="M41.3102 113.908C41.2049 113.908 41.0995 113.864 41.0118 113.785C40.845 113.618 40.845 113.355 41.0118 113.197L46.795 107.414C46.9617 107.247 47.2249 107.247 47.3829 107.414C47.5496 107.581 47.5496 107.844 47.3829 108.002L41.5999 113.785C41.5209 113.864 41.4155 113.908 41.3014 113.908H41.3102Z" fill="#00497A"/>
<path d="M68.7606 38.8246C65.6716 38.8246 63.1528 36.306 63.1528 33.217C63.1528 30.128 65.6716 27.6094 68.7606 27.6094C71.8496 27.6094 74.3681 30.128 74.3681 33.217C74.3681 36.306 71.8496 38.8246 68.7606 38.8246ZM68.7606 28.443C66.1279 28.443 63.9867 30.5843 63.9867 33.217C63.9867 35.8497 66.1279 37.9909 68.7606 37.9909C71.3933 37.9909 73.5345 35.8497 73.5345 33.217C73.5345 30.5843 71.3933 28.443 68.7606 28.443Z" fill="#00497A"/>
</svg>
