<svg width="410" height="107" viewBox="0 0 410 107" fill="none" xmlns="http://www.w3.org/2000/svg">
<g clip-path="url(#clip0_161_156)">
<rect width="410" height="107" fill="#636B2F"/>
<g opacity="0.1">
<path d="M31.2224 55.7318C35.2589 54.8355 40.5165 50.8291 41.3166 48.8559C41.7858 47.7009 39.4457 45.8962 38.8201 45.1683C37.3884 43.508 37.9659 42.6899 38.5193 40.7108C39.151 38.4609 37.6531 35.9765 35.5296 35.0019C33.4061 34.0274 30.8675 34.3342 28.7319 35.2847C26.5964 36.2351 24.7736 37.7631 22.987 39.267C21.6816 38.4429 19.6002 34.8034 16.2315 37.1676C13.9034 38.7978 13.6929 42.347 13.9936 45.1804C14.6975 51.7194 16.3097 55.1122 19.3476 56.0266C23.1855 57.1816 27.4326 56.574 31.2224 55.7318Z" fill="#FFCA28"/>
<path d="M37.7789 36.9209C37.2675 45.7338 28.6712 51.581 24.5926 54.1557L27.2395 56.4296C27.2395 56.4296 28.9178 56.4657 31.2158 55.7318C35.156 54.4805 40.913 50.9433 41.31 48.8559C41.8935 45.818 38.7774 46.4797 38.0736 44.0795C37.7067 42.8102 39.8603 40.41 37.7789 36.9209ZM22.9924 39.273C22.9924 39.273 21.4585 37.7029 20.3215 36.9871C19.756 38.0518 19.353 39.2068 19.1545 40.3979C18.7996 42.4914 19.1545 45.4631 19.9907 47.6768C20.123 48.0197 20.6163 47.9656 20.6704 47.6046C21.3923 42.8463 22.9924 39.273 22.9924 39.273Z" fill="#E2A610"/>
<path d="M12.273 54.9557C12.273 54.9557 -6.4897 56.9829 -14.9537 73.2732C-23.4177 89.5635 -16.223 99.4412 -8.6072 103.039C-0.991415 106.636 18.1984 107.905 30.6809 104.945C43.1633 101.986 46.2854 95.8499 45.7019 89.9245C44.8537 81.274 36.8168 75.9562 36.8168 75.9562C36.8168 75.9562 37.1356 65.2724 28.8461 58.3364C21.489 52.1764 12.273 54.9557 12.273 54.9557Z" fill="#FFCA28"/>
<path d="M19.9729 82.3688C15.9484 77.2916 11.1961 76.6119 9.67415 74.7891C8.84399 73.7965 8.35673 72.7919 8.54321 71.5467C8.74173 70.2233 10.2757 69.3089 11.4668 69.0863C12.8564 68.8216 16.171 68.96 18.9563 71.6129C19.618 72.2385 19.3774 73.213 19.3593 74.0853C19.3112 75.9562 21.9881 77.7729 24.1538 76.2088C26.3254 74.6387 24.6591 71.1437 23.2574 69.4473C22.1987 68.1659 18.3607 65.3446 13.5903 64.8994C12.2488 64.7731 6.85282 63.973 3.73673 69.8984C2.8404 71.6008 2.50954 75.7155 7.20173 79.1926C8.18227 79.9205 13.2715 82.5072 14.6852 84.1855C17.1335 87.0911 15.4552 89.6477 13.5422 89.9846C8.32665 90.899 5.37298 88.0776 4.82556 86.5316C4.43454 85.4308 4.8436 84.2397 4.33829 83.205C3.82095 82.1402 2.7622 81.7191 1.64329 82.074C-2.02624 83.2411 -0.859208 87.2535 0.765011 89.4612C2.50353 91.8254 4.63907 93.2511 7.03931 94.0331C15.9966 96.9507 20.3038 92.3427 21.0557 88.968C21.6091 86.4955 21.549 84.354 19.9729 82.3688Z" fill="#6B4B46"/>
<path d="M17.8075 61.4707C10.1857 77.749 8.87427 98.3044 8.87427 98.3044" stroke="#6B4B46" stroke-width="2.03125" stroke-miterlimit="10"/>
<path d="M24.1295 51.226C29.2067 52.8802 30.3316 57.4702 29.9646 58.7214C29.5255 60.1892 23.9009 54.4744 15.5392 54.8173C12.6156 54.9376 13.4638 53.1449 14.8173 52.1102C16.6039 50.7447 19.6057 49.7581 24.1295 51.226Z" fill="#6D4C41"/>
<path d="M24.1295 51.226C29.2067 52.8802 30.3316 57.4702 29.9646 58.7214C29.5255 60.1892 23.9009 54.4744 15.5392 54.8173C12.6156 54.9376 13.4638 53.1449 14.8173 52.1102C16.6039 50.7447 19.6057 49.7581 24.1295 51.226Z" fill="#6B4B46"/>
<path d="M33.0447 67.408C33.6823 66.9689 35.8239 67.7269 36.4254 71.9197C36.7202 73.9711 36.8104 75.9562 36.8104 75.9562C36.8104 75.9562 34.2839 73.6883 33.4477 72.0942C32.395 70.079 31.9859 68.1299 33.0447 67.408Z" fill="#E2A610"/>
</g>
<g opacity="0.1">
<path d="M317.222 16.7318C321.259 15.8355 326.517 11.8291 327.317 9.85593C327.786 8.70093 325.446 6.89624 324.82 6.16835C323.388 4.50804 323.966 3.68991 324.519 1.71077C325.151 -0.539073 323.653 -3.02353 321.53 -3.99806C319.406 -4.97259 316.867 -4.66579 314.732 -3.71532C312.596 -2.76485 310.774 -1.23689 308.987 0.267021C307.682 -0.557119 305.6 -4.19657 302.231 -1.83243C299.903 -0.202197 299.693 3.34702 299.994 6.18038C300.697 12.7194 302.31 16.1122 305.348 17.0266C309.186 18.1816 313.433 17.574 317.222 16.7318Z" fill="#FFCA28"/>
<path d="M323.779 -2.07912C323.268 6.73377 314.671 12.581 310.593 15.1556L313.239 17.4296C313.239 17.4296 314.918 17.4656 317.216 16.7317C321.156 15.4805 326.913 11.9433 327.31 9.85588C327.894 6.81799 324.777 7.47971 324.074 5.07948C323.707 3.81018 325.86 1.40995 323.779 -2.07912ZM308.992 0.272992C308.992 0.272992 307.458 -1.29709 306.322 -2.01295C305.756 -0.948179 305.353 0.20682 305.154 1.39791C304.8 3.49135 305.154 6.46307 305.991 8.67682C306.123 9.01971 306.616 8.96557 306.67 8.60463C307.392 3.84627 308.992 0.272992 308.992 0.272992Z" fill="#E2A610"/>
<path d="M298.273 15.9557C298.273 15.9557 279.51 17.9829 271.046 34.2732C262.582 50.5636 269.777 60.4412 277.393 64.0386C285.009 67.6359 304.198 68.9052 316.681 65.9455C329.163 62.9858 332.285 56.8499 331.702 50.9245C330.854 42.274 322.817 36.9562 322.817 36.9562C322.817 36.9562 323.136 26.2725 314.846 19.3364C307.489 13.1764 298.273 15.9557 298.273 15.9557Z" fill="#FFCA28"/>
<path d="M305.973 43.3688C301.948 38.2916 297.196 37.6119 295.674 35.7891C294.844 34.7965 294.357 33.7919 294.543 32.5467C294.742 31.2233 296.276 30.3089 297.467 30.0863C298.856 29.8216 302.171 29.96 304.956 32.6129C305.618 33.2385 305.377 34.213 305.359 35.0853C305.311 36.9562 307.988 38.7729 310.154 37.2088C312.325 35.6387 310.659 32.1437 309.257 30.4473C308.199 29.1659 304.361 26.3446 299.59 25.8994C298.249 25.7731 292.853 24.973 289.737 30.8984C288.84 32.6008 288.51 36.7155 293.202 40.1926C294.182 40.9205 299.271 43.5072 300.685 45.1855C303.134 48.0911 301.455 50.6477 299.542 50.9846C294.327 51.899 291.373 49.0776 290.826 47.5316C290.435 46.4308 290.844 45.2397 290.338 44.205C289.821 43.1402 288.762 42.7191 287.643 43.074C283.974 44.2411 285.141 48.2535 286.765 50.4612C288.504 52.8254 290.639 54.2511 293.039 55.0331C301.997 57.9507 306.304 53.3427 307.056 49.968C307.609 47.4955 307.549 45.354 305.973 43.3688Z" fill="#6B4B46"/>
<path d="M303.807 22.4707C296.186 38.749 294.874 59.3044 294.874 59.3044" stroke="#6B4B46" stroke-width="2.03125" stroke-miterlimit="10"/>
<path d="M310.129 12.226C315.207 13.8803 316.332 18.4702 315.965 19.7214C315.526 21.1892 309.901 15.4744 301.539 15.8173C298.616 15.9376 299.464 14.145 300.817 13.1103C302.604 11.7447 305.606 10.7582 310.129 12.226Z" fill="#6D4C41"/>
<path d="M310.129 12.226C315.207 13.8803 316.332 18.4702 315.965 19.7214C315.526 21.1892 309.901 15.4744 301.539 15.8173C298.616 15.9376 299.464 14.145 300.817 13.1103C302.604 11.7447 305.606 10.7582 310.129 12.226Z" fill="#6B4B46"/>
<path d="M319.045 28.408C319.682 27.9689 321.824 28.7269 322.425 32.9197C322.72 34.9711 322.81 36.9562 322.81 36.9562C322.81 36.9562 320.284 34.6883 319.448 33.0942C318.395 31.079 317.986 29.1299 319.045 28.408Z" fill="#E2A610"/>
</g>
</g>
<defs>
<clipPath id="clip0_161_156">
<rect width="410" height="107" fill="white"/>
</clipPath>
</defs>
</svg>
