<svg width="24" height="24" viewBox="0 0 24 24" fill="none" xmlns="http://www.w3.org/2000/svg">
<path fill-rule="evenodd" clip-rule="evenodd" d="M5.5 12.214C5.5 11.9488 5.60536 11.6944 5.79289 11.5069C5.98043 11.3194 6.23478 11.214 6.5 11.214H19C19.2652 11.214 19.5196 11.3194 19.7071 11.5069C19.8946 11.6944 20 11.9488 20 12.214C20 12.4792 19.8946 12.7336 19.7071 12.9211C19.5196 13.1086 19.2652 13.214 19 13.214H6.5C6.23478 13.214 5.98043 13.1086 5.79289 12.9211C5.60536 12.7336 5.5 12.4792 5.5 12.214Z" fill="black"/>
<path fill-rule="evenodd" clip-rule="evenodd" d="M4 12.214C4.00006 11.9488 4.10545 11.6945 4.293 11.507L8.793 7.00699C8.88525 6.91148 8.99559 6.8353 9.1176 6.78289C9.2396 6.73048 9.37082 6.7029 9.5036 6.70174C9.63638 6.70059 9.76806 6.72589 9.89095 6.77617C10.0139 6.82645 10.1255 6.90071 10.2194 6.9946C10.3133 7.08849 10.3875 7.20014 10.4378 7.32304C10.4881 7.44594 10.5134 7.57762 10.5123 7.7104C10.5111 7.84317 10.4835 7.97439 10.4311 8.0964C10.3787 8.2184 10.3025 8.32875 10.207 8.42099L6.414 12.214L10.207 16.007C10.3892 16.1956 10.49 16.4482 10.4877 16.7104C10.4854 16.9726 10.3802 17.2234 10.1948 17.4088C10.0094 17.5942 9.7586 17.6994 9.4964 17.7017C9.2342 17.7039 8.9816 17.6032 8.793 17.421L4.293 12.921C4.10545 12.7335 4.00006 12.4792 4 12.214Z" fill="black"/>
</svg>
