<svg width="24" height="24" viewBox="0 0 24 24" fill="none" xmlns="http://www.w3.org/2000/svg">
<path d="M6.85711 11.3513C6.40245 11.3513 5.96642 11.5222 5.64492 11.8263C5.32343 12.1304 5.14282 12.5429 5.14282 12.973C5.14282 13.4031 5.32343 13.8155 5.64492 14.1196C5.96642 14.4237 6.40245 14.5946 6.85711 14.5946C7.31176 14.5946 7.7478 14.4237 8.06929 14.1196C8.39078 13.8155 8.57139 13.4031 8.57139 12.973C8.57139 12.5429 8.39078 12.1304 8.06929 11.8263C7.7478 11.5222 7.31176 11.3513 6.85711 11.3513ZM17.1428 11.3513C16.6882 11.3513 16.2521 11.5222 15.9306 11.8263C15.6091 12.1304 15.4285 12.5429 15.4285 12.973C15.4285 13.4031 15.6091 13.8155 15.9306 14.1196C16.2521 14.4237 16.6882 14.5946 17.1428 14.5946C17.5975 14.5946 18.0335 14.4237 18.355 14.1196C18.6765 13.8155 18.8571 13.4031 18.8571 12.973C18.8571 12.5429 18.6765 12.1304 18.355 11.8263C18.0335 11.5222 17.5975 11.3513 17.1428 11.3513ZM10.2857 12.973C10.2857 12.5429 10.4663 12.1304 10.7878 11.8263C11.1093 11.5222 11.5453 11.3513 12 11.3513C12.4546 11.3513 12.8907 11.5222 13.2121 11.8263C13.5336 12.1304 13.7143 12.5429 13.7143 12.973C13.7143 13.4031 13.5336 13.8155 13.2121 14.1196C12.8907 14.4237 12.4546 14.5946 12 14.5946C11.5453 14.5946 11.1093 14.4237 10.7878 14.1196C10.4663 13.8155 10.2857 13.4031 10.2857 12.973ZM6.85711 16.5405C6.40245 16.5405 5.96642 16.7114 5.64492 17.0155C5.32343 17.3196 5.14282 17.7321 5.14282 18.1622C5.14282 18.5922 5.32343 19.0047 5.64492 19.3088C5.96642 19.6129 6.40245 19.7838 6.85711 19.7838C7.31176 19.7838 7.7478 19.6129 8.06929 19.3088C8.39078 19.0047 8.57139 18.5922 8.57139 18.1622C8.57139 17.7321 8.39078 17.3196 8.06929 17.0155C7.7478 16.7114 7.31176 16.5405 6.85711 16.5405ZM10.2857 18.1622C10.2857 17.7321 10.4663 17.3196 10.7878 17.0155C11.1093 16.7114 11.5453 16.5405 12 16.5405C12.4546 16.5405 12.8907 16.7114 13.2121 17.0155C13.5336 17.3196 13.7143 17.7321 13.7143 18.1622C13.7143 18.5922 13.5336 19.0047 13.2121 19.3088C12.8907 19.6129 12.4546 19.7838 12 19.7838C11.5453 19.7838 11.1093 19.6129 10.7878 19.3088C10.4663 19.0047 10.2857 18.5922 10.2857 18.1622Z" fill="#999999"/>
<path d="M9.76046 0H14.2395C15.7371 0 16.9248 -9.68576e-08 17.8807 0.0739459C18.8599 0.149189 19.6869 0.307459 20.4439 0.670703C21.6695 1.26207 22.6656 2.2053 23.2896 3.36519C23.675 4.0787 23.8423 4.86227 23.9218 5.78854C24 6.69276 24 7.81622 24 9.23287V14.7671C24 16.1838 24 17.3072 23.9218 18.2115C23.8423 19.1377 23.675 19.92 23.291 20.6361C22.6662 21.7952 21.6695 22.7375 20.4439 23.328C19.6869 23.6925 18.8599 23.8508 17.8807 23.9261C16.9248 24 15.7371 24 14.2395 24H9.76046C8.26286 24 7.0752 24 6.11931 23.9261C5.14011 23.8508 4.31314 23.6925 3.55749 23.3293C2.33162 22.7385 1.33497 21.7957 0.7104 20.6361C0.325028 19.92 0.157714 19.1377 0.0781713 18.2115C-1.11759e-07 17.3072 0 16.1838 0 14.7671V9.23287C0 7.81622 -1.11759e-07 6.69276 0.0781713 5.78854C0.157714 4.86227 0.325029 4.08 0.709029 3.36519C1.33395 2.20539 2.33111 1.26259 3.55749 0.672C4.31177 0.307459 5.14011 0.149189 6.11931 0.0739459C7.0752 -9.68576e-08 8.26286 0 9.76046 0ZM2.05714 8.75676V14.7243C2.05714 16.1942 2.05714 17.2372 2.12846 18.0532C2.19703 18.8575 2.33006 19.357 2.54263 19.7526C2.96991 20.5458 3.65161 21.1906 4.49006 21.5948C4.90834 21.7959 5.43634 21.9204 6.28663 21.9866C7.15063 22.0528 8.25326 22.0541 9.80571 22.0541H14.1943C15.7481 22.0541 16.8507 22.0541 17.7134 21.9866C18.5637 21.9217 19.0917 21.7959 19.5099 21.5948C20.3484 21.1906 21.0301 20.5458 21.4574 19.7526C21.6699 19.357 21.8016 18.8575 21.8715 18.0532C21.9415 17.2359 21.9429 16.1929 21.9429 14.7243V8.75676H2.05714ZM8.57143 3.89189C8.2077 3.89189 7.85888 4.02857 7.60168 4.27186C7.34449 4.51515 7.2 4.84512 7.2 5.18919C7.2 5.53325 7.34449 5.86323 7.60168 6.10652C7.85888 6.34981 8.2077 6.48649 8.57143 6.48649H15.4286C15.7923 6.48649 16.1411 6.34981 16.3983 6.10652C16.6555 5.86323 16.8 5.53325 16.8 5.18919C16.8 4.84512 16.6555 4.51515 16.3983 4.27186C16.1411 4.02857 15.7923 3.89189 15.4286 3.89189H8.57143Z" fill="#999999"/>
</svg>
