<svg width="35" height="35" viewBox="0 0 35 35" fill="none" xmlns="http://www.w3.org/2000/svg">
<circle cx="17.5" cy="17.5" r="17.5" fill="#198754"/>
<path d="M22.7461 25.875C22.0598 25.875 21.0958 25.6268 19.6523 24.8203C17.897 23.8359 16.5392 22.9272 14.7934 21.1859C13.1101 19.5036 12.2909 18.4145 11.1445 16.3283C9.84934 13.9729 10.0701 12.7382 10.3169 12.2105C10.6108 11.5798 11.0447 11.2025 11.6054 10.8281C11.9239 10.6195 12.2609 10.4406 12.6123 10.2938C12.6474 10.2786 12.6801 10.2642 12.7093 10.2512C12.8833 10.1728 13.147 10.0543 13.481 10.1809C13.7039 10.2646 13.9029 10.4358 14.2143 10.7434C14.8531 11.3734 15.7261 12.7765 16.0481 13.4656C16.2643 13.93 16.4074 14.2365 16.4077 14.5804C16.4077 14.9829 16.2052 15.2933 15.9595 15.6284C15.9134 15.6913 15.8677 15.7514 15.8234 15.8098C15.5559 16.1613 15.4972 16.2629 15.5359 16.4443C15.6143 16.8089 16.1989 17.8942 17.1597 18.8529C18.1206 19.8116 19.1745 20.3593 19.5405 20.4374C19.7297 20.4778 19.8334 20.4166 20.1962 20.1396C20.2482 20.0999 20.3016 20.0588 20.3575 20.0176C20.7323 19.7388 21.0283 19.5416 21.4214 19.5416H21.4235C21.7656 19.5416 22.0584 19.69 22.5436 19.9347C23.1764 20.2539 24.6216 21.1156 25.2555 21.755C25.5638 22.0658 25.7357 22.2641 25.8198 22.4867C25.9463 22.8217 25.8272 23.0843 25.7495 23.2601C25.7364 23.2893 25.722 23.3213 25.7069 23.3568C25.5589 23.7075 25.379 24.0438 25.1694 24.3615C24.7957 24.9205 24.417 25.3533 23.7849 25.6475C23.4603 25.8011 23.1051 25.8789 22.7461 25.875Z" fill="white"/>
</svg>
