<svg width="18" height="18" viewBox="0 0 18 18" fill="none" xmlns="http://www.w3.org/2000/svg">
<path fill-rule="evenodd" clip-rule="evenodd" d="M8.99995 10.5915L12.9772 14.5688C13.1882 14.7798 13.4745 14.8984 13.7729 14.8984C14.0714 14.8984 14.3577 14.7798 14.5687 14.5688C14.7797 14.3577 14.8983 14.0715 14.8983 13.773C14.8983 13.4746 14.7797 13.1883 14.5687 12.9773L10.5899 9.00002L14.5679 5.02277C14.6724 4.91827 14.7552 4.79422 14.8118 4.65771C14.8683 4.52119 14.8973 4.37488 14.8973 4.22713C14.8973 4.07938 14.8681 3.93309 14.8115 3.7966C14.755 3.66011 14.6721 3.5361 14.5676 3.43165C14.4631 3.3272 14.339 3.24435 14.2025 3.18784C14.066 3.13133 13.9197 3.10227 13.7719 3.1023C13.6242 3.10234 13.4779 3.13147 13.3414 3.18805C13.2049 3.24462 13.0809 3.32752 12.9764 3.43202L8.99995 7.40927L5.0227 3.43202C4.91897 3.32452 4.79487 3.23876 4.65765 3.17974C4.52042 3.12071 4.37281 3.08961 4.22344 3.08824C4.07406 3.08687 3.92591 3.11527 3.78762 3.17177C3.64934 3.22827 3.52369 3.31175 3.41801 3.41733C3.31234 3.5229 3.22874 3.64847 3.17211 3.7867C3.11548 3.92494 3.08695 4.07306 3.08817 4.22244C3.0894 4.37181 3.12036 4.51945 3.17926 4.65673C3.23815 4.79401 3.3238 4.91819 3.4312 5.02202L7.40995 9.00002L3.43195 12.978C3.32455 13.0819 3.2389 13.206 3.18001 13.3433C3.12111 13.4806 3.09015 13.6282 3.08892 13.7776C3.0877 13.927 3.11623 14.0751 3.17286 14.2133C3.22949 14.3516 3.31309 14.4771 3.41876 14.5827C3.52444 14.6883 3.65009 14.7718 3.78837 14.8283C3.92666 14.8848 4.07481 14.9132 4.22419 14.9118C4.37356 14.9104 4.52117 14.8793 4.6584 14.8203C4.79562 14.7613 4.91972 14.6755 5.02345 14.568L8.99995 10.5915Z" fill="black"/>
</svg>
