<svg width="16" height="16" viewBox="0 0 16 16" fill="none" xmlns="http://www.w3.org/2000/svg">
<path d="M11.0713 2.00334C11.2305 1.84365 11.4195 1.71694 11.6277 1.63045C11.8359 1.54397 12.0591 1.49942 12.2845 1.49936C12.51 1.4993 12.7332 1.54372 12.9414 1.63009C13.1497 1.71646 13.3388 1.84308 13.498 2.00268L13.998 2.50334C14.1573 2.66247 14.2838 2.85145 14.37 3.05947C14.4563 3.2675 14.5006 3.49048 14.5006 3.71568C14.5006 3.94087 14.4563 4.16386 14.37 4.37188C14.2838 4.5799 14.1573 4.76888 13.998 4.92801L8.93133 9.99734C8.77217 10.1567 8.58313 10.2832 8.37505 10.3694C8.16697 10.4557 7.94392 10.5001 7.71867 10.5H6C5.86739 10.5 5.74022 10.4473 5.64645 10.3536C5.55268 10.2598 5.5 10.1326 5.5 10V8.29201C5.5 7.83734 5.68 7.40134 6.00133 7.08001L11.0713 2.00334Z" fill="white"/>
<path d="M7.962 1.5H8C8.13261 1.5 8.25979 1.55268 8.35355 1.64645C8.44732 1.74021 8.5 1.86739 8.5 2C8.5 2.13261 8.44732 2.25979 8.35355 2.35355C8.25979 2.44732 8.13261 2.5 8 2.5C6.57133 2.5 5.55067 2.50133 4.77467 2.60533C4.01333 2.708 3.56333 2.90133 3.232 3.232C2.90133 3.56333 2.708 4.01333 2.60533 4.77467C2.50133 5.55067 2.5 6.57133 2.5 8C2.5 9.42867 2.50133 10.4493 2.60533 11.2253C2.708 11.9867 2.90133 12.4367 3.232 12.768C3.56333 13.0987 4.01333 13.292 4.77467 13.3947C5.55067 13.4987 6.57133 13.5 8 13.5C9.42867 13.5 10.4493 13.4987 11.2253 13.3947C11.9867 13.292 12.4367 13.0987 12.768 12.768C13.0987 12.4367 13.292 11.9867 13.3947 11.2253C13.4987 10.4493 13.5 9.428 13.5 8C13.5 7.86739 13.5527 7.74022 13.6464 7.64645C13.7402 7.55268 13.8674 7.5 14 7.5C14.1326 7.5 14.2598 7.55268 14.3536 7.64645C14.4473 7.74022 14.5 7.86739 14.5 8V8.038C14.5 9.42 14.5 10.508 14.386 11.358C14.2687 12.2313 14.0227 12.9273 13.4747 13.4747C12.9273 14.0227 12.2307 14.268 11.3587 14.386C10.508 14.5 9.42 14.5 8.038 14.5H7.962C6.58 14.5 5.492 14.5 4.642 14.386C3.76867 14.2687 3.07267 14.0227 2.52533 13.4747C1.97733 12.9273 1.732 12.2307 1.614 11.3587C1.5 10.508 1.5 9.42 1.5 8.038V7.962C1.5 6.58 1.5 5.492 1.614 4.642C1.73133 3.76867 1.97733 3.07267 2.52533 2.52533C3.07267 1.97733 3.76933 1.732 4.64133 1.614C5.492 1.5 6.58 1.5 7.962 1.5Z" fill="white"/>
</svg>
