<svg width="21" height="20" viewBox="0 0 21 20" fill="none" xmlns="http://www.w3.org/2000/svg">
<path d="M11.8526 11.425L13.0193 9.40832C13.0943 9.28332 13.0609 9.12499 12.9526 9.03332L11.7193 8.06666C11.7443 7.88332 11.7609 7.69166 11.7609 7.49999C11.7609 7.30832 11.7443 7.11666 11.7193 6.92499L12.9526 5.95832C13.0609 5.86666 13.0943 5.70832 13.0193 5.58332L11.8526 3.56666C11.7776 3.44166 11.6276 3.39166 11.4943 3.44166L10.0443 4.02499C9.74427 3.79166 9.41927 3.59999 9.06094 3.44999L8.84427 1.90832C8.83029 1.84092 8.7938 1.78029 8.7408 1.73637C8.68779 1.69245 8.62143 1.66787 8.55261 1.66666H6.21927C6.07761 1.66666 5.95261 1.77499 5.92761 1.91666L5.71094 3.45832C5.36094 3.60832 5.02761 3.79999 4.72761 4.03332L3.27761 3.44999C3.14427 3.39999 2.99427 3.44999 2.91927 3.57499L1.75261 5.59166C1.67761 5.71666 1.71094 5.87499 1.81927 5.96666L3.05261 6.93332C3.02761 7.11666 3.01094 7.30832 3.01094 7.49999C3.01094 7.69166 3.02761 7.88332 3.05261 8.07499L1.81927 9.04166C1.71094 9.13332 1.67761 9.29166 1.75261 9.41666L2.91927 11.4333C2.99427 11.5583 3.14427 11.6083 3.27761 11.5583L4.72761 10.975C5.02761 11.2083 5.35261 11.4 5.71094 11.55L5.92761 13.0917C5.95261 13.225 6.07761 13.3333 6.21927 13.3333H8.55261C8.69427 13.3333 8.81927 13.225 8.84427 13.0833L9.06094 11.5417C9.41094 11.3917 9.74427 11.2 10.0443 10.9667L11.4943 11.55C11.6276 11.6 11.7776 11.55 11.8526 11.425ZM7.38594 9.16666C6.46927 9.16666 5.71927 8.41666 5.71927 7.49999C5.71927 6.58332 6.46927 5.83332 7.38594 5.83332C8.30261 5.83332 9.05261 6.58332 9.05261 7.49999C9.05261 8.41666 8.30261 9.16666 7.38594 9.16666ZM18.3109 15.5583L17.5109 14.9417C17.5276 14.825 17.5443 14.7 17.5443 14.575C17.5443 14.45 17.5359 14.325 17.5109 14.2083L18.3026 13.5917C18.3693 13.5333 18.3943 13.4333 18.3443 13.35L17.5943 12.0583C17.5526 11.975 17.4526 11.95 17.3609 11.975L16.4359 12.35C16.2443 12.2 16.0359 12.075 15.8026 11.9833L15.6609 11C15.6576 10.9554 15.6379 10.9137 15.6056 10.8829C15.5732 10.8521 15.5306 10.8344 15.4859 10.8333H13.9943C13.9026 10.8333 13.8193 10.9 13.8109 10.9917L13.6693 11.975C13.4443 12.075 13.2276 12.1917 13.0359 12.3417L12.1109 11.9667C12.0685 11.9507 12.0217 11.9503 11.979 11.9656C11.9363 11.9808 11.9003 12.0107 11.8776 12.05L11.1276 13.3417C11.0859 13.425 11.0943 13.525 11.1693 13.5833L11.9609 14.2C11.9272 14.4433 11.9272 14.69 11.9609 14.9333L11.1693 15.55C11.1026 15.6083 11.0776 15.7083 11.1276 15.7917L11.8776 17.0833C11.9193 17.1667 12.0193 17.1917 12.1109 17.1667L13.0359 16.7917C13.2276 16.9417 13.4359 17.0667 13.6693 17.1583L13.8109 18.1417C13.8276 18.2333 13.9026 18.3 13.9943 18.3H15.4859C15.5776 18.3 15.6609 18.2333 15.6693 18.1417L15.8109 17.1583C16.0359 17.0583 16.2526 16.9417 16.4359 16.7917L17.3693 17.1667C17.4526 17.2 17.5526 17.1667 17.6026 17.0833L18.3526 15.7917C18.4026 15.7167 18.3776 15.6167 18.3109 15.5583ZM14.7359 15.6917C14.5881 15.6916 14.4418 15.6624 14.3053 15.6058C14.1688 15.5492 14.0447 15.4663 13.9403 15.3617C13.8358 15.2572 13.753 15.1331 13.6964 14.9965C13.6399 14.86 13.6109 14.7136 13.6109 14.5658C13.611 14.418 13.6402 14.2717 13.6968 14.1352C13.7534 13.9987 13.8363 13.8746 13.9409 13.7702C14.0454 13.6657 14.1695 13.5828 14.3061 13.5263C14.4426 13.4698 14.589 13.4408 14.7368 13.4408C15.0353 13.4409 15.3215 13.5596 15.5324 13.7707C15.7434 13.9819 15.8619 14.2682 15.8618 14.5667C15.8617 14.8651 15.743 15.1513 15.5319 15.3623C15.3207 15.5733 15.0344 15.6918 14.7359 15.6917Z" fill="#343434"/>
</svg>
