<svg width="10" height="10" viewBox="0 0 10 10" fill="none" xmlns="http://www.w3.org/2000/svg">
<path d="M10 0.5V9.5C10 9.63261 9.96488 9.75979 9.90237 9.85355C9.83986 9.94732 9.75507 10 9.66667 10H0.333333C0.244928 10 0.160143 9.94732 0.0976311 9.85355C0.035119 9.75979 0 9.63261 0 9.5C0 9.36739 0.035119 9.24021 0.0976311 9.14645C0.160143 9.05268 0.244928 9 0.333333 9H2.33333V6.5C2.33333 6.36739 2.36845 6.24021 2.43096 6.14645C2.49348 6.05268 2.57826 6 2.66667 6H4.66667V3.5C4.66667 3.36739 4.70179 3.24021 4.7643 3.14645C4.82681 3.05268 4.91159 3 5 3H7V0.5C7 0.367392 7.03512 0.240215 7.09763 0.146447C7.16014 0.0526785 7.24493 0 7.33333 0H9.66667C9.75507 0 9.83986 0.0526785 9.90237 0.146447C9.96488 0.240215 10 0.367392 10 0.5Z" fill="#313131"/>
</svg>
