<svg width="26" height="26" viewBox="0 0 26 26" fill="none" xmlns="http://www.w3.org/2000/svg">
<path fill-rule="evenodd" clip-rule="evenodd" d="M11.2761 0.643414C11.772 0.225977 12.3774 0 13 0C13.6226 0 14.228 0.225977 14.7239 0.643414L15.9783 1.69932C19.6634 4.80367 22.8203 8.61118 25.301 12.9434L25.7039 13.6452C25.8864 13.9639 25.9883 14.331 25.999 14.7083C26.0098 15.0855 25.929 15.4591 25.7651 15.7899C25.6012 16.1207 25.3602 16.3966 25.0672 16.5888C24.7743 16.781 24.4402 16.8824 24.0998 16.8825H22.7864C22.8624 18.8215 22.7674 20.7626 22.5013 22.6826C22.3732 23.6068 21.9508 24.4495 21.3107 25.0581C20.6705 25.6666 19.8549 26.0008 19.0117 26H15.3758V19.0533C15.3758 18.3546 15.1255 17.6845 14.6799 17.1905C14.2344 16.6964 13.6301 16.4188 13 16.4188C12.3699 16.4188 11.7656 16.6964 11.3201 17.1905C10.8745 17.6845 10.6242 18.3546 10.6242 19.0533V26H6.98826C6.14581 25.9986 5.33153 25.6636 4.69209 25.0553C4.05266 24.4471 3.63011 23.6057 3.50057 22.6826C3.23448 20.7626 3.13945 18.8194 3.21548 16.8825H1.90023C1.55985 16.8824 1.22573 16.781 0.932787 16.5888C0.639842 16.3966 0.398821 16.1207 0.234904 15.7899C0.0709861 15.4591 -0.00981203 15.0855 0.000950541 14.7083C0.0117131 14.331 0.113641 13.9639 0.296087 13.6452L0.697123 12.9413C3.17858 8.60964 6.3361 4.80285 10.0217 1.69932L11.2761 0.643414Z" fill="#636B2F"/>
</svg>
