<svg width="28" height="28" viewBox="0 0 28 28" fill="none" xmlns="http://www.w3.org/2000/svg">
<path d="M7.51424 27H20.4858C21.8596 27 23.0284 25.8785 23.2355 24.3626C23.5677 21.9499 23.6456 19.5051 23.4651 17.0764H25.975C26.1586 17.0763 26.3388 17.0211 26.4968 16.9166C26.6549 16.812 26.7849 16.6619 26.8733 16.4819C26.9617 16.3019 27.0053 16.0987 26.9995 15.8934C26.9937 15.6881 26.9387 15.4884 26.8403 15.315L26.4056 14.5513C23.7948 9.95209 20.4723 5.90986 16.5939 2.61405L15.2406 1.46734C14.8838 1.16415 14.4481 1 14 1C13.5519 1 13.1162 1.16415 12.7594 1.46734L11.4061 2.61405C7.52749 5.91054 4.20502 9.95356 1.59442 14.5536L1.15972 15.3173C1.0613 15.4907 1.00632 15.6904 1.00051 15.8957C0.994707 16.101 1.03829 16.3042 1.12671 16.4842C1.21513 16.6641 1.34515 16.8143 1.50317 16.9188C1.66119 17.0234 1.84142 17.0786 2.02503 17.0787H4.53485C4.35664 19.5083 4.43372 21.953 4.76451 24.3626C4.97366 25.8808 6.14245 27 7.51424 27Z" stroke="#999999" stroke-linecap="round" stroke-linejoin="round"/>
<path d="M13.9999 16.2026C15.8884 16.2026 17.4201 17.9135 17.4201 20.0257V26.9977H10.5817V20.0257C10.5817 17.9158 12.1113 16.2026 13.9999 16.2026Z" stroke="#999999" stroke-linecap="round" stroke-linejoin="round"/>
</svg>
