<svg width="26" height="26" viewBox="0 0 26 26" fill="none" xmlns="http://www.w3.org/2000/svg">
<path fill-rule="evenodd" clip-rule="evenodd" d="M10.3964 1.97662C11.1408 1.39765 12.0569 1.08331 13 1.08331C13.943 1.08331 14.8591 1.39765 15.6035 1.97662L24.4984 8.89485C24.9707 9.26217 25.0558 9.94281 24.6884 10.4151C24.3211 10.8874 23.6405 10.9724 23.1682 10.6051L22.75 10.2798V20.5833C22.75 22.3782 21.2949 23.8333 19.5 23.8333H6.49997C4.70504 23.8333 3.24997 22.3782 3.24997 20.5833V10.2798L2.83174 10.6051C2.35946 10.9724 1.67883 10.8874 1.3115 10.4151C0.944178 9.94281 1.02926 9.26217 1.50153 8.89485L10.3964 1.97662ZM5.41439 8.59638C5.41588 8.61961 5.41664 8.64304 5.41664 8.66665V20.5833C5.41664 21.1816 5.90166 21.6666 6.49997 21.6666H8.66664V16.25C8.66664 13.8567 10.6067 11.9166 13 11.9166C15.3932 11.9166 17.3333 13.8567 17.3333 16.25V21.6666H19.5C20.0983 21.6666 20.5833 21.1816 20.5833 20.5833V8.66665C20.5833 8.64304 20.5841 8.61961 20.5855 8.59638L14.2733 3.68688C13.9093 3.40371 13.4612 3.24998 13 3.24998C12.5387 3.24998 12.0907 3.40372 11.7266 3.68688L5.41439 8.59638ZM15.1666 21.6666V16.25C15.1666 15.0534 14.1966 14.0833 13 14.0833C11.8034 14.0833 10.8333 15.0534 10.8333 16.25V21.6666H15.1666Z"/>
</svg>
