<svg width="16" height="16" viewBox="0 0 16 16" fill="none" xmlns="http://www.w3.org/2000/svg">
<path d="M14.2998 7.48467H13.3732C13.2521 6.22438 12.6962 5.0455 11.8009 4.15024C10.9057 3.25498 9.72679 2.69912 8.4665 2.578V1.65134C8.4665 1.51873 8.41383 1.39155 8.32006 1.29778C8.22629 1.20402 8.09911 1.15134 7.9665 1.15134C7.8339 1.15134 7.70672 1.20402 7.61295 1.29778C7.51918 1.39155 7.4665 1.51873 7.4665 1.65134V2.578C6.21173 2.70517 5.03998 3.26385 4.15122 4.15869C3.26246 5.05352 2.71178 6.22906 2.59317 7.48467H1.6665C1.60084 7.48467 1.53582 7.4976 1.47516 7.52273C1.4145 7.54786 1.35938 7.58469 1.31295 7.63112C1.26652 7.67755 1.22969 7.73267 1.20456 7.79333C1.17944 7.85399 1.1665 7.91901 1.1665 7.98467C1.1665 8.05033 1.17944 8.11535 1.20456 8.17601C1.22969 8.23667 1.26652 8.29179 1.31295 8.33822C1.35938 8.38465 1.4145 8.42148 1.47516 8.44661C1.53582 8.47174 1.60084 8.48467 1.6665 8.48467H2.59317C2.71428 9.74496 3.27014 10.9238 4.16541 11.8191C5.06067 12.7144 6.23955 13.2702 7.49984 13.3913V14.318C7.49984 14.4506 7.55252 14.5778 7.64628 14.6716C7.74005 14.7653 7.86723 14.818 7.99984 14.818C8.13245 14.818 8.25962 14.7653 8.35339 14.6716C8.44716 14.5778 8.49984 14.4506 8.49984 14.318V13.3913C9.75967 13.269 10.9378 12.7127 11.8329 11.8177C12.7279 10.9227 13.2842 9.7445 13.4065 8.48467H14.3332C14.3988 8.48467 14.4639 8.47174 14.5245 8.44661C14.5852 8.42148 14.6403 8.38465 14.6867 8.33822C14.7332 8.29179 14.77 8.23667 14.7951 8.17601C14.8202 8.11535 14.8332 8.05033 14.8332 7.98467C14.8332 7.91901 14.8202 7.85399 14.7951 7.79333C14.77 7.73267 14.7332 7.67755 14.6867 7.63112C14.6403 7.58469 14.5852 7.54786 14.5245 7.52273C14.4639 7.4976 14.3988 7.48467 14.3332 7.48467H14.2998ZM7.9665 12.4113C7.09099 12.4113 6.23514 12.1517 5.50718 11.6653C4.77922 11.1789 4.21184 10.4875 3.8768 9.67868C3.54175 8.86981 3.45409 7.97976 3.62489 7.12107C3.7957 6.26238 4.2173 5.47362 4.83638 4.85454C5.45546 4.23546 6.24422 3.81386 7.1029 3.64306C7.96159 3.47226 8.85165 3.55992 9.66052 3.89496C10.4694 4.23001 11.1607 4.79738 11.6471 5.52535C12.1336 6.25331 12.3932 7.10916 12.3932 7.98467C12.3932 9.15931 11.927 10.2859 11.097 11.1172C10.2671 11.9484 9.14114 12.4162 7.9665 12.418V12.4113Z" fill="#747476"/>
<path d="M10.9864 7.99133C10.9864 8.59024 10.8088 9.17568 10.4759 9.67355C10.143 10.1714 9.66992 10.5594 9.11648 10.7882C8.56304 11.0171 7.95414 11.0767 7.36684 10.9593C6.77955 10.842 6.24026 10.5531 5.81724 10.1291C5.39422 9.70519 5.10648 9.16527 4.99045 8.57771C4.87442 7.99016 4.93531 7.38139 5.16542 6.82845C5.39552 6.27552 5.78449 5.80328 6.2831 5.47151C6.78171 5.13974 7.36754 4.96335 7.96644 4.96467C8.36359 4.96467 8.75685 5.043 9.12369 5.19519C9.49052 5.34737 9.82374 5.57042 10.1043 5.85156C10.3848 6.1327 10.6071 6.46641 10.7585 6.83358C10.9098 7.20076 10.9873 7.59418 10.9864 7.99133Z" fill="#747476"/>
</svg>
