<svg width="35" height="35" viewBox="0 0 35 35" fill="none" xmlns="http://www.w3.org/2000/svg">
<circle cx="17.5" cy="17.5" r="17.5" fill="#82C8E5"/>
<path d="M17.965 10C16.2407 10 14.9005 10 13.8571 10.1231C12.8019 10.2486 11.9661 10.5087 11.2993 11.0962C10.6147 11.7002 10.2947 12.4854 10.1436 13.4758C10 14.4211 10 15.624 10 17.1239V17.2741C10 18.7363 10 19.748 10.1488 20.5021C10.2292 20.9083 10.3557 21.2611 10.5544 21.5877C10.7509 21.9093 11.0009 22.1801 11.2993 22.4427C11.7689 22.8571 12.3226 23.1073 12.9767 23.2632V25.3851C12.9768 25.493 13.0026 25.5989 13.0515 25.6922C13.1004 25.7856 13.1707 25.8632 13.2553 25.9172C13.3399 25.9712 13.4359 25.9998 13.5337 26C13.6315 26.0002 13.7276 25.9721 13.8125 25.9185C14.2486 25.6436 14.6348 25.3441 14.9883 25.0619L15.2145 24.8805C15.4662 24.6727 15.7233 24.473 15.9855 24.2815C16.6136 23.8319 17.2134 23.5389 18 23.5389H18.035C19.7593 23.5389 21.0995 23.5389 22.1429 23.4158C23.1981 23.2903 24.0339 23.0302 24.7007 22.4427C24.9983 22.1801 25.2491 21.9093 25.4448 21.5877C25.6443 21.2611 25.7708 20.9083 25.8512 20.5021C26 19.748 26 18.7363 26 17.2741V17.1239C26 15.624 26 14.4211 25.8564 13.4766C25.7053 12.4854 25.3853 11.7002 24.7007 11.0962C24.0339 10.5079 23.1981 10.2486 22.1429 10.1239C21.0995 10 19.7593 10 18.035 10H17.965Z" fill="white"/>
</svg>
