<svg width="18" height="18" viewBox="0 0 18 18" fill="none" xmlns="http://www.w3.org/2000/svg">
<path d="M12.4169 9.67952L12.0757 10.0193C12.0757 10.0193 11.2634 10.8263 9.04716 8.62277C6.83091 6.41927 7.64316 5.61227 7.64316 5.61227L7.85766 5.39777C8.38791 4.87127 8.43816 4.02527 7.97541 3.40727L7.03041 2.14502C6.45741 1.38002 5.35116 1.27877 4.69491 1.93127L3.51741 3.10127C3.19266 3.42527 2.97516 3.84377 3.00141 4.30876C3.06891 5.49902 3.60741 8.05877 6.61041 11.0453C9.79566 14.2118 12.7844 14.3378 14.0062 14.2238C14.3932 14.1878 14.7292 13.9913 14.9999 13.7213L16.0649 12.6623C16.7849 11.9475 16.5824 10.7213 15.6614 10.221L14.2289 9.44177C13.6244 9.11402 12.8894 9.21002 12.4169 9.67952Z" fill="#747476"/>
</svg>
