<svg width="26" height="26" viewBox="0 0 26 26" fill="none" xmlns="http://www.w3.org/2000/svg">
<path d="M4.33329 21.6667C3.73746 21.6667 3.22757 21.4547 2.80363 21.0308C2.37968 20.6068 2.16735 20.0966 2.16663 19.5V15.1667H7.58329V16.25H9.74996V15.1667H16.25V16.25H18.4166V15.1667H23.8333V19.5C23.8333 20.0958 23.6213 20.6061 23.1974 21.0308C22.7734 21.4554 22.2632 21.6674 21.6666 21.6667H4.33329ZM2.62704 13L4.87496 7.8C5.03746 7.40278 5.29926 7.08681 5.66038 6.85209C6.02149 6.61736 6.40968 6.5 6.82496 6.5H7.58329V5.41667C7.58329 4.82084 7.79563 4.31059 8.22029 3.88592C8.64496 3.46125 9.15485 3.24928 9.74996 3.25H16.25C16.8458 3.25 17.356 3.46234 17.7807 3.887C18.2054 4.31167 18.4173 4.82156 18.4166 5.41667V6.5H19.175C19.5902 6.5 19.9784 6.61736 20.3395 6.85209C20.7007 7.08681 20.9625 7.40278 21.125 7.8L23.3729 13H18.4166V11.9167H16.25V13H9.74996V11.9167H7.58329V13H2.62704ZM9.74996 6.5H16.25V5.41667H9.74996V6.5Z" fill="#636B2F"/>
</svg>
