<svg width="20" height="20" viewBox="0 0 20 20" fill="none" xmlns="http://www.w3.org/2000/svg">
<path d="M14.9998 13.3333H13.3332V12.5H6.6665V13.3333H4.99984V12.5H1.6665V16.6667H18.3332V12.5H14.9998V13.3333ZM16.6665 6.66666H14.1665V4.99999C14.1665 4.08333 13.4165 3.33333 12.4998 3.33333H7.49984C6.58317 3.33333 5.83317 4.08333 5.83317 4.99999V6.66666H3.33317C2.4165 6.66666 1.6665 7.41666 1.6665 8.33333V11.6667H4.99984V9.99999H6.6665V11.6667H13.3332V9.99999H14.9998V11.6667H18.3332V8.33333C18.3332 7.41666 17.5832 6.66666 16.6665 6.66666ZM12.4998 6.66666H7.49984V4.99999H12.4998V6.66666Z" fill="#313131"/>
</svg>
