<svg width="26" height="26" viewBox="0 0 26 26" fill="none" xmlns="http://www.w3.org/2000/svg">
<path fill-rule="evenodd" clip-rule="evenodd" d="M1.28034 0.140862C1.25126 0.222329 1.21298 0.600889 1.1953 0.982222L1.16331 1.67556L0.581655 1.73333L0 1.79111V3.87111V5.95111L0.378076 5.98728L0.756152 6.02356V15.8302C0.756152 24.5913 0.775696 25.6562 0.938908 25.8185C1.08711 25.9656 1.41959 26 2.69155 26C3.55496 26 4.36265 25.9462 4.48643 25.8804C4.70617 25.7636 4.71141 25.5307 4.71141 15.8921V6.02356L5.08949 5.98728C5.40276 5.95735 5.48664 5.88675 5.57889 5.57556L5.69022 5.2H9.77786C13.6164 5.2 13.8775 5.21306 14.0615 5.41505C14.1692 5.53338 14.4653 5.72335 14.7194 5.83706L15.1812 6.04402V7.75979V9.47556H14.4928C13.4331 9.47556 13.4362 9.47232 13.4362 10.5644V11.513L12.7864 11.7805L12.1366 12.0481L11.5323 11.4551C10.6546 10.5942 10.5875 10.6137 9.03834 12.1733C8.32209 12.8945 7.73602 13.5559 7.73602 13.6433C7.73602 13.7307 8.0237 14.0911 8.37549 14.4441L9.01484 15.0859L8.75357 15.7472L8.49217 16.4084L7.61387 16.4087C7.08619 16.4088 6.67985 16.4642 6.59597 16.5476C6.51547 16.6275 6.45638 17.0106 6.45638 17.4525C6.45638 18.1478 6.42997 18.2328 6.17078 18.3706C5.63008 18.6579 5.52573 19.1058 5.52573 21.1389C5.52573 23.1802 5.62717 23.638 6.15578 23.9821C6.43055 24.1609 6.45638 24.2456 6.45638 24.9692C6.45638 25.6336 6.49255 25.78 6.68136 25.8804C6.80514 25.9462 7.50812 26 8.24357 26C9.86581 26 9.94631 25.9504 9.94631 24.9518V24.2667H15.821H21.6957V25.0137C21.6957 25.6292 21.7346 25.7815 21.9165 25.8782C22.1891 26.023 24.5241 26.0245 24.9066 25.8799C25.1622 25.7834 25.1857 25.7104 25.1857 25.0129C25.1857 24.292 25.2076 24.2307 25.5928 23.8697L26 23.4883V21.1835V18.8788L25.6801 18.5765C25.5042 18.4103 25.2162 18.2389 25.0403 18.1957C24.7305 18.1197 24.7204 18.0924 24.7204 17.3332C24.7204 16.4113 24.7173 16.409 23.5184 16.4088L22.6846 16.4085L22.4221 15.7688L22.1597 15.129L22.8002 14.5079C23.1524 14.1662 23.4407 13.7962 23.4407 13.6856C23.4407 13.4383 20.9477 10.9064 20.6205 10.8214C20.4471 10.7764 20.2053 10.9301 19.7072 11.402L19.0298 12.0439L18.3851 11.7785L17.7405 11.513V10.633C17.7405 10.1026 17.685 9.69777 17.6009 9.61422C17.5218 9.53564 17.1427 9.47556 16.7253 9.47556H15.9894L16.0215 7.78128L16.0537 6.087L16.519 5.82897C17.3058 5.39263 17.6651 4.84559 17.7132 4.01128C17.762 3.16206 17.5463 2.68124 16.8741 2.14067C16.4789 1.823 16.3619 1.79111 15.5895 1.79111C14.8049 1.79111 14.7038 1.81988 14.2693 2.16667L13.7988 2.54222H9.74447H5.69022L5.57889 2.16667C5.47617 1.82 5.42277 1.78672 4.88591 1.73333L4.30425 1.67556L4.24608 0.866667L4.18792 0.0577778L2.76054 0.0253067C1.68168 0.000808873 1.32036 0.0290044 1.28034 0.140862ZM21.6957 0.404444C21.6957 0.789591 21.7152 0.808889 22.1029 0.808889C22.4906 0.808889 22.5101 0.789591 22.5101 0.404444C22.5101 0.0192978 22.4906 0 22.1029 0C21.7152 0 21.6957 0.0192978 21.6957 0.404444ZM23.4407 0.404444C23.4407 0.789591 23.4601 0.808889 23.8479 0.808889C24.2356 0.808889 24.255 0.789591 24.255 0.404444C24.255 0.0192978 24.2356 0 23.8479 0C23.4601 0 23.4407 0.0192978 23.4407 0.404444ZM25.1857 0.404444C25.1857 0.789591 25.2051 0.808889 25.5928 0.808889C25.9806 0.808889 26 0.789591 26 0.404444C26 0.0192978 25.9806 0 25.5928 0C25.2051 0 25.1857 0.0192978 25.1857 0.404444ZM2.08349 0.967778C2.04708 1.06184 2.03463 1.25956 2.05569 1.40712C2.09047 1.65083 2.15282 1.67556 2.73378 1.67556H3.3736V1.27111V0.866667L2.76158 0.831653C2.30475 0.805538 2.13281 0.840089 2.08349 0.967778ZM23.4407 2.13778C23.4407 2.52292 23.4601 2.54222 23.8479 2.54222C24.2356 2.54222 24.255 2.52292 24.255 2.13778C24.255 1.75263 24.2356 1.73333 23.8479 1.73333C23.4601 1.73333 23.4407 1.75263 23.4407 2.13778ZM25.1857 2.13778C25.1857 2.52292 25.2051 2.54222 25.5928 2.54222C25.9806 2.54222 26 2.52292 26 2.13778C26 1.75263 25.9806 1.73333 25.5928 1.73333C25.2051 1.73333 25.1857 1.75263 25.1857 2.13778ZM0.806175 2.69487C0.773718 2.77888 0.762318 3.36382 0.780814 3.99487L0.814318 5.14222H2.73378H4.65324L4.68617 3.84222L4.71909 2.54222H2.79206C1.30256 2.54222 0.851776 2.57689 0.806175 2.69487ZM14.9485 2.79679C14.0079 3.42853 14.1824 4.73789 15.2541 5.0893C16.1216 5.37368 17.1016 4.40267 16.8157 3.54212C16.5239 2.6639 15.66 2.31908 14.9485 2.79679ZM5.64206 3.87111V4.27556H9.53915H13.4362V3.87111V3.46667H9.53915H5.64206V3.87111ZM15.1812 3.87111C15.1812 4.25626 15.2006 4.27556 15.5884 4.27556C15.9761 4.27556 15.9955 4.25626 15.9955 3.87111C15.9955 3.48596 15.9761 3.46667 15.5884 3.46667C15.2006 3.46667 15.1812 3.48596 15.1812 3.87111ZM25.1857 3.87111C25.1857 4.25626 25.2051 4.27556 25.5928 4.27556C25.9806 4.27556 26 4.25626 26 3.87111C26 3.48596 25.9806 3.46667 25.5928 3.46667C25.2051 3.46667 25.1857 3.48596 25.1857 3.87111ZM1.6868 6.79617V7.58356L2.61757 8.38506C3.12954 8.82602 3.60068 9.204 3.66455 9.22515C3.7383 9.24964 3.78076 8.66863 3.78076 7.63626V6.00889H2.73378H1.6868V6.79617ZM1.6868 10.3466C1.6868 12.1538 1.55337 12.0799 2.8351 10.9821L3.57625 10.3473L3.06777 9.90496C2.78811 9.66183 2.36303 9.30523 2.12304 9.11283L1.6868 8.76281V10.3466ZM14.2264 11.2804L14.1924 12.1608L13.1454 12.609C12.5696 12.8556 12.0477 13.0573 11.9857 13.0574C11.9238 13.0577 11.5963 12.7863 11.2582 12.4546L10.6432 11.8513L9.77123 12.7117C9.29171 13.1849 8.89933 13.6041 8.89933 13.6435C8.89933 13.6828 9.16107 13.9863 9.48098 14.3177C9.80089 14.6491 10.0626 14.9634 10.0626 15.0161C10.0626 15.0687 9.9028 15.4686 9.70736 15.9048C9.03683 17.4013 9.17922 17.2713 8.16819 17.3093L7.27069 17.343V17.7426V18.1422H8.82616H10.3816L10.4569 17.5788C10.6217 16.3446 11.7403 14.7836 12.9738 14.0659C13.79 13.5911 14.8485 13.3657 15.9374 13.4353C17.5531 13.5384 18.8366 14.2288 19.7809 15.503C20.2696 16.1626 20.7651 17.3569 20.7651 17.8758C20.7651 18.1408 20.7732 18.1422 22.3356 18.1422H23.906V17.7426V17.343L23.0085 17.3093C22.1808 17.2782 22.1003 17.253 21.9739 16.9867C21.8985 16.8278 21.6639 16.3203 21.4524 15.8588L21.068 15.0199L21.5855 14.4744C21.87 14.1744 22.1422 13.9106 22.1902 13.8882C22.4026 13.7889 22.2204 13.5157 21.4055 12.7117L20.5335 11.8513L19.9186 12.4546C19.5804 12.7863 19.2529 13.0577 19.191 13.0574C19.129 13.0573 18.6072 12.8556 18.0313 12.609L16.9843 12.1608L16.9504 11.2804L16.9164 10.4H15.5884H14.2603L14.2264 11.2804ZM2.81289 12.1838C2.31255 12.6175 1.9461 13.0079 1.99857 13.0514C2.05103 13.095 2.44854 13.4337 2.88199 13.804C3.31532 14.1744 3.69654 14.4511 3.72899 14.4189C3.76145 14.3867 3.7732 13.6932 3.75528 12.8779L3.72259 11.3955L2.81289 12.1838ZM1.6868 15.5494C1.6868 17.0502 1.69808 17.1287 1.89038 16.9677C2.00229 16.874 2.42632 16.5157 2.83255 16.1714L3.57113 15.5455L3.22656 15.255C3.03706 15.0951 2.61315 14.7386 2.28439 14.4626L1.6868 13.9607V15.5494ZM14.9013 14.3344C13.1752 14.6248 11.7341 15.9746 11.3602 17.6511L11.2507 18.1422H15.6029H19.9552L19.8771 17.8244C19.6206 16.7811 19.0996 15.8815 18.4256 15.318C17.9181 14.8938 17.063 14.4783 16.5126 14.3883C15.6327 14.2445 15.4683 14.239 14.9013 14.3344ZM2.82952 17.347C2.33837 17.7526 1.94575 18.115 1.95704 18.1522C1.99659 18.2823 3.6799 19.6676 3.73365 19.6142C3.76354 19.5845 3.7732 18.8963 3.75528 18.0849L3.72259 16.6095L2.82952 17.347ZM13.1626 19.0667L12.3656 19.1244L11.5769 20.9835C10.4535 23.6317 10.4479 23.3422 11.6223 23.3422C12.7616 23.3422 12.6514 23.4414 13.308 21.8259C13.4986 21.357 13.837 20.5496 14.06 20.0318C14.5324 18.9347 14.5609 18.9653 13.1626 19.0667ZM6.52699 19.2495C6.41636 19.5358 6.44439 23.1111 6.55723 23.1111C6.61261 23.1111 6.77512 22.8381 6.91809 22.5044C7.50778 21.1291 8.31767 19.171 8.31767 19.1206C8.31767 19.0909 7.93064 19.0667 7.45764 19.0667C6.78071 19.0667 6.5826 19.1056 6.52699 19.2495ZM9.13781 19.5578C8.39538 21.2638 7.61969 23.1452 7.61969 23.24C7.61969 23.3052 8.03394 23.3374 8.62234 23.3178L9.62512 23.2844L9.95364 22.5333C10.6823 20.8673 11.3423 19.2692 11.3423 19.1709C11.3423 19.1136 10.8944 19.0667 10.347 19.0667H9.35162L9.13781 19.5578ZM14.603 21.06C14.1382 22.1564 13.7323 23.1184 13.701 23.1978C13.658 23.3067 13.8992 23.3422 14.6845 23.3422H15.7251L16.4607 21.58C16.8653 20.6108 17.2673 19.6487 17.3537 19.4422L17.511 19.0667H16.4796H15.4481L14.603 21.06ZM18.229 19.6733C18.0959 20.0069 17.7437 20.852 17.4463 21.5511C17.1488 22.2502 16.8591 22.9392 16.8024 23.0822C16.6993 23.3421 16.6997 23.3422 17.9557 23.3422H19.2122L19.9238 21.6378C20.3152 20.7003 20.7178 19.7384 20.8181 19.5L21.0009 19.0667H19.7358H18.4708L18.229 19.6733ZM21.1376 21.06C20.6755 22.1564 20.2979 23.1184 20.2986 23.1978C20.2994 23.3018 20.5726 23.3422 21.2729 23.3422H22.246L22.6044 22.5044C23.4122 20.6159 24.0224 19.1568 24.0224 19.1131C24.0224 19.0876 23.5624 19.0667 23.0001 19.0667H21.9779L21.1376 21.06ZM1.6868 20.7494C1.6868 22.2502 1.69808 22.3287 1.89038 22.1677C2.00229 22.074 2.42632 21.7157 2.83255 21.3714L3.57113 20.7455L3.22656 20.455C3.03706 20.2951 2.61315 19.9386 2.28439 19.6626L1.6868 19.1607V20.7494ZM24.8419 19.5036C24.4862 20.2742 23.3244 23.1254 23.3244 23.2283C23.3244 23.3936 24.8772 23.3713 25.0461 23.2036C25.2101 23.0406 25.2477 19.3495 25.0863 19.2504C25.0318 19.2169 24.9217 19.3308 24.8419 19.5036ZM2.64735 22.6852L1.68843 23.5156L1.68762 24.2956L1.6868 25.0756H2.73378H3.78076V23.4578C3.78076 22.568 3.74156 21.8434 3.69351 21.8474C3.64547 21.8514 3.17479 22.2285 2.64735 22.6852ZM7.29245 24.6422L7.32886 25.0178L8.17226 25.0518L9.01566 25.0857V24.6762V24.2667H8.13585H7.25592L7.29245 24.6422ZM22.5318 24.6422L22.5682 25.0178L23.4116 25.0518L24.255 25.0857V24.6762V24.2667H23.3752H22.4953L22.5318 24.6422Z"/>
</svg>
