<svg width="26" height="26" viewBox="0 0 26 26" fill="none" xmlns="http://www.w3.org/2000/svg">
<path d="M7.58329 6.5V5.41667C7.58329 4.82083 7.79563 4.31094 8.22029 3.887C8.64496 3.46306 9.15485 3.25072 9.74996 3.25H16.25C16.8458 3.25 17.356 3.46233 17.7807 3.887C18.2054 4.31167 18.4173 4.82156 18.4166 5.41667V6.5H19.175C19.6083 6.5 20.0012 6.62206 20.3536 6.86617C20.7061 7.11028 20.9632 7.42156 21.125 7.8L23.6708 13.65C23.725 13.7944 23.7658 13.9389 23.7932 14.0833C23.8207 14.2278 23.834 14.3722 23.8333 14.5167V19.5C23.8333 20.0958 23.6213 20.6061 23.1974 21.0307C22.7734 21.4554 22.2632 21.6674 21.6666 21.6667H4.33329C3.73746 21.6667 3.22757 21.4547 2.80363 21.0307C2.37968 20.6068 2.16735 20.0966 2.16663 19.5V14.5167C2.16663 14.3722 2.18035 14.2278 2.20779 14.0833C2.23524 13.9389 2.27568 13.7944 2.32913 13.65L4.87496 7.8C5.03746 7.42083 5.29493 7.10919 5.64738 6.86508C5.99982 6.62097 6.39235 6.49928 6.82496 6.5H7.58329ZM9.74996 6.5H16.25V5.41667H9.74996V6.5ZM7.58329 13V11.9167H9.74996V13H16.25V11.9167H18.4166V13H21.0166L19.175 8.66667H6.82496L4.98329 13H7.58329ZM7.58329 15.1667H4.33329V19.5H21.6666V15.1667H18.4166V16.25H16.25V15.1667H9.74996V16.25H7.58329V15.1667Z" fill="#999999"/>
</svg>
