<svg width="40" height="40" viewBox="0 0 40 40" fill="none" xmlns="http://www.w3.org/2000/svg">
<circle cx="20" cy="20" r="20" fill="white"/>
<g clip-path="url(#clip0_337_248)">
<path d="M25.2501 21.5C24.7473 21.501 24.2498 21.6031 23.7873 21.8002C23.3247 21.9973 22.9065 22.2855 22.5576 22.6475L18.4401 20.585C18.4754 20.3919 18.4954 20.1963 18.5001 20C18.4954 19.8037 18.4754 19.6081 18.4401 19.415L22.5576 17.3525C23.1634 17.9774 23.9678 18.3722 24.8328 18.469C25.6978 18.5659 26.5696 18.3588 27.2986 17.8833C28.0277 17.4078 28.5686 16.6935 28.8287 15.8629C29.0888 15.0323 29.0519 14.137 28.7242 13.3306C28.3966 12.5243 27.7986 11.857 27.0328 11.4432C26.2671 11.0294 25.3812 10.8949 24.5271 11.0627C23.673 11.2305 22.9039 11.6902 22.3516 12.3629C21.7994 13.0357 21.4983 13.8796 21.5001 14.75C21.5047 14.9463 21.5248 15.1419 21.5601 15.335L17.4426 17.3975C16.9238 16.8593 16.256 16.4884 15.5249 16.3325C14.7938 16.1765 14.0327 16.2427 13.3395 16.5224C12.6463 16.8021 12.0524 17.2827 11.6343 17.9023C11.2161 18.522 10.9927 19.2524 10.9927 20C10.9927 20.7475 11.2161 21.478 11.6343 22.0977C12.0524 22.7173 12.6463 23.1978 13.3395 23.4776C14.0327 23.7573 14.7938 23.8234 15.5249 23.6675C16.256 23.5116 16.9238 23.1407 17.4426 22.6025L21.5601 24.665C21.5248 24.8581 21.5047 25.0537 21.5001 25.25C21.5001 25.9917 21.72 26.7167 22.1321 27.3334C22.5441 27.9501 23.1298 28.4307 23.815 28.7145C24.5002 28.9984 25.2542 29.0726 25.9817 28.9279C26.7091 28.7832 27.3773 28.4261 27.9017 27.9016C28.4262 27.3772 28.7833 26.709 28.928 25.9816C29.0727 25.2541 28.9985 24.5001 28.7146 23.8149C28.4308 23.1297 27.9502 22.544 27.3335 22.132C26.7168 21.7199 25.9918 21.5 25.2501 21.5Z" fill="#636B2F"/>
</g>
<defs>
<clipPath id="clip0_337_248">
<rect width="18" height="18" fill="white" transform="translate(11 11)"/>
</clipPath>
</defs>
</svg>
