<svg width="20" height="20" viewBox="0 0 20 20" fill="none" xmlns="http://www.w3.org/2000/svg">
<path d="M5.71422 9.45947C5.33534 9.45947 4.97197 9.60185 4.70406 9.85527C4.43615 10.1087 4.28564 10.4524 4.28564 10.8108C4.28564 11.1692 4.43615 11.5129 4.70406 11.7664C4.97197 12.0198 5.33534 12.1622 5.71422 12.1622C6.0931 12.1622 6.45646 12.0198 6.72437 11.7664C6.99228 11.5129 7.14279 11.1692 7.14279 10.8108C7.14279 10.4524 6.99228 10.1087 6.72437 9.85527C6.45646 9.60185 6.0931 9.45947 5.71422 9.45947ZM14.2856 9.45947C13.9068 9.45947 13.5434 9.60185 13.2755 9.85527C13.0076 10.1087 12.8571 10.4524 12.8571 10.8108C12.8571 11.1692 13.0076 11.5129 13.2755 11.7664C13.5434 12.0198 13.9068 12.1622 14.2856 12.1622C14.6645 12.1622 15.0279 12.0198 15.2958 11.7664C15.5637 11.5129 15.7142 11.1692 15.7142 10.8108C15.7142 10.4524 15.5637 10.1087 15.2958 9.85527C15.0279 9.60185 14.6645 9.45947 14.2856 9.45947ZM8.57136 10.8108C8.57136 10.4524 8.72187 10.1087 8.98978 9.85527C9.25769 9.60185 9.62105 9.45947 9.99993 9.45947C10.3788 9.45947 10.7422 9.60185 11.0101 9.85527C11.278 10.1087 11.4285 10.4524 11.4285 10.8108C11.4285 11.1692 11.278 11.5129 11.0101 11.7664C10.7422 12.0198 10.3788 12.1622 9.99993 12.1622C9.62105 12.1622 9.25769 12.0198 8.98978 11.7664C8.72187 11.5129 8.57136 11.1692 8.57136 10.8108ZM5.71422 13.7838C5.33534 13.7838 4.97197 13.9262 4.70406 14.1796C4.43615 14.433 4.28564 14.7767 4.28564 15.1351C4.28564 15.4935 4.43615 15.8373 4.70406 16.0907C4.97197 16.3441 5.33534 16.4865 5.71422 16.4865C6.0931 16.4865 6.45646 16.3441 6.72437 16.0907C6.99228 15.8373 7.14279 15.4935 7.14279 15.1351C7.14279 14.7767 6.99228 14.433 6.72437 14.1796C6.45646 13.9262 6.0931 13.7838 5.71422 13.7838ZM8.57136 15.1351C8.57136 14.7767 8.72187 14.433 8.98978 14.1796C9.25769 13.9262 9.62105 13.7838 9.99993 13.7838C10.3788 13.7838 10.7422 13.9262 11.0101 14.1796C11.278 14.433 11.4285 14.7767 11.4285 15.1351C11.4285 15.4935 11.278 15.8373 11.0101 16.0907C10.7422 16.3441 10.3788 16.4865 9.99993 16.4865C9.62105 16.4865 9.25769 16.3441 8.98978 16.0907C8.72187 15.8373 8.57136 15.4935 8.57136 15.1351Z" fill="#28282B"/>
<path d="M8.13371 0H11.8663C13.1143 0 14.104 -8.07146e-08 14.9006 0.0616215C15.7166 0.124324 16.4057 0.256216 17.0366 0.558919C18.0579 1.05172 18.888 1.83775 19.408 2.80432C19.7291 3.39892 19.8686 4.05189 19.9349 4.82378C20 5.5773 20 6.51351 20 7.69405V12.3059C20 13.4865 20 14.4227 19.9349 15.1762C19.8686 15.9481 19.7291 16.6 19.4091 17.1968C18.8885 18.1627 18.058 18.9479 17.0366 19.44C16.4057 19.7438 15.7166 19.8757 14.9006 19.9384C14.104 20 13.1143 20 11.8663 20H8.13371C6.88571 20 5.896 20 5.09943 19.9384C4.28343 19.8757 3.59429 19.7438 2.96457 19.4411C1.94302 18.9487 1.11247 18.1631 0.592 17.1968C0.270857 16.6 0.131428 15.9481 0.0651428 15.1762C-9.31323e-08 14.4227 0 13.4865 0 12.3059V7.69405C0 6.51351 -9.31323e-08 5.5773 0.0651428 4.82378C0.131428 4.05189 0.270857 3.4 0.590857 2.80432C1.11163 1.83782 1.94259 1.05216 2.96457 0.56C3.59314 0.256216 4.28343 0.124324 5.09943 0.0616215C5.896 -8.07146e-08 6.88571 0 8.13371 0ZM1.71429 7.2973V12.2703C1.71429 13.4951 1.71429 14.3643 1.77371 15.0443C1.83086 15.7146 1.94171 16.1308 2.11886 16.4605C2.47493 17.1215 3.04301 17.6589 3.74171 17.9957C4.09029 18.1632 4.53029 18.267 5.23886 18.3222C5.95886 18.3773 6.87771 18.3784 8.17143 18.3784H11.8286C13.1234 18.3784 14.0423 18.3784 14.7611 18.3222C15.4697 18.2681 15.9097 18.1632 16.2583 17.9957C16.957 17.6589 17.5251 17.1215 17.8811 16.4605C18.0583 16.1308 18.168 15.7146 18.2263 15.0443C18.2846 14.3632 18.2857 13.4941 18.2857 12.2703V7.2973H1.71429ZM7.14286 3.24324C6.83975 3.24324 6.54906 3.35714 6.33474 3.55988C6.12041 3.76263 6 4.0376 6 4.32432C6 4.61104 6.12041 4.88602 6.33474 5.08876C6.54906 5.29151 6.83975 5.40541 7.14286 5.40541H12.8571C13.1602 5.40541 13.4509 5.29151 13.6653 5.08876C13.8796 4.88602 14 4.61104 14 4.32432C14 4.0376 13.8796 3.76263 13.6653 3.55988C13.4509 3.35714 13.1602 3.24324 12.8571 3.24324H7.14286Z" fill="#28282B"/>
</svg>
