<svg width="20" height="20" viewBox="0 0 20 20" fill="none" xmlns="http://www.w3.org/2000/svg">
<path d="M13.6 1.59998C14.2365 1.59998 14.8469 1.85283 15.297 2.30292C15.7471 2.75301 16 3.36346 16 3.99998V16.8C16 16.9448 15.9607 17.0869 15.8863 17.2112C15.8118 17.3354 15.7051 17.4371 15.5774 17.5055C15.4497 17.5738 15.3058 17.6062 15.1611 17.5992C15.0165 17.5921 14.8764 17.546 14.756 17.4656L12.9016 16.2296L11.7656 17.3656C11.6278 17.5033 11.4445 17.5861 11.2501 17.5983C11.0557 17.6105 10.8635 17.5514 10.7096 17.432L10.6344 17.3656L9.59995 16.332L8.56555 17.3656C8.4278 17.5033 8.24452 17.5861 8.0501 17.5983C7.85568 17.6105 7.66347 17.5514 7.50955 17.432L7.43435 17.3656L6.29755 16.2296L4.44395 17.4656L4.42875 17.4752L4.38555 17.4992L4.36315 17.5128L4.31995 17.5312L4.27995 17.5496L4.24075 17.5616L4.19275 17.5768L4.15115 17.584L4.10555 17.5928L4.03835 17.5976L4.01755 17.6H3.99995L3.96075 17.5976H3.92955L3.91915 17.5952H3.90635L3.87355 17.5888L3.84315 17.5848L3.83115 17.5808L3.81675 17.5792L3.78955 17.5704L3.75755 17.5624L3.74235 17.5568L3.73035 17.5536L3.70715 17.5432L3.67515 17.5312L3.65835 17.5224L3.64795 17.5184L3.62555 17.5056L3.59675 17.4912L3.58555 17.4832L3.57115 17.4752L3.54075 17.4536L3.52315 17.4424L3.51515 17.4352L3.49915 17.424L3.46315 17.3912L3.45355 17.3848L3.43435 17.3656L3.40635 17.3344L3.39035 17.3184L3.38475 17.3096L3.37595 17.3L3.35035 17.264L3.33435 17.244L3.32475 17.2288L3.30075 17.1856L3.28715 17.1632L3.26875 17.12L3.25035 17.08C3.23966 17.0517 3.23058 17.0229 3.22315 16.9936L3.21515 16.948L3.20715 16.9056L3.19995 16.8V3.99998C3.19995 3.36346 3.45281 2.75301 3.9029 2.30292C4.35298 1.85283 4.96343 1.59998 5.59995 1.59998H13.6ZM12 4.79998H7.19995C6.17035 4.79998 6.13435 6.29118 7.09355 6.39438L7.19995 6.39998H7.99995C8.2808 6.39998 8.55671 6.47392 8.79993 6.61435C9.04315 6.75477 9.24513 6.95675 9.38555 7.19998H7.19995C6.98778 7.19998 6.7843 7.28426 6.63427 7.43429C6.48424 7.58432 6.39995 7.7878 6.39995 7.99998C6.39995 8.21215 6.48424 8.41563 6.63427 8.56566C6.7843 8.71569 6.98778 8.79998 7.19995 8.79998L9.38555 8.80078C9.24502 9.04385 9.04301 9.24567 8.79979 9.38595C8.55657 9.52624 8.28072 9.60005 7.99995 9.59998H7.19995C6.48795 9.59998 6.13035 10.4616 6.63435 10.9656L9.03435 13.3656C9.18437 13.5156 9.38782 13.5998 9.59995 13.5998C9.81208 13.5998 10.0155 13.5156 10.1656 13.3656L10.232 13.2904C10.3514 13.1365 10.4105 12.9443 10.3983 12.7498C10.386 12.5554 10.3033 12.3721 10.1656 12.2344L8.97835 11.0464L9.06875 11.0168C9.56241 10.8413 10.0056 10.5476 10.3595 10.1613C10.7135 9.77497 10.9674 9.30787 11.0992 8.80078L12 8.79998C12.2121 8.79998 12.4156 8.71569 12.5656 8.56566C12.7157 8.41563 12.8 8.21215 12.8 7.99998C12.8 7.7878 12.7157 7.58432 12.5656 7.43429C12.4156 7.28426 12.2121 7.19998 12 7.19998H11.0992C11.0376 6.96261 10.9491 6.73311 10.8352 6.51598L10.772 6.39998H12C12.2121 6.39998 12.4156 6.31569 12.5656 6.16566C12.7157 6.01563 12.8 5.81215 12.8 5.59998L12.7944 5.50638C12.7714 5.31177 12.6779 5.13236 12.5315 5.00215C12.385 4.87194 12.1959 4.8 12 4.79998Z" fill="#BDBDBD"/>
</svg>
