<svg width="18" height="18" viewBox="0 0 18 18" fill="none" xmlns="http://www.w3.org/2000/svg">
<path d="M8.25 11.25H9.375V9.75H11.25C11.4625 9.75 11.6407 9.678 11.7847 9.534C11.9288 9.39 12.0005 9.212 12 9V7.5C12 7.2875 11.928 7.1095 11.784 6.966C11.64 6.8225 11.462 6.7505 11.25 6.75H8.25V11.25ZM12.75 11.25H13.875V6.75H12.75V11.25ZM9.375 8.625V7.875H10.875V8.625H9.375ZM4.5 11.25H6.75C6.9625 11.25 7.14075 11.178 7.28475 11.034C7.42875 10.89 7.5005 10.712 7.5 10.5V6.75H6.375V10.125H4.875V6.75H3.75V10.5C3.75 10.7125 3.822 10.8908 3.966 11.0347C4.11 11.1788 4.288 11.2505 4.5 11.25ZM3 15C2.5875 15 2.2345 14.8533 1.941 14.5597C1.6475 14.2662 1.5005 13.913 1.5 13.5V4.5C1.5 4.0875 1.647 3.7345 1.941 3.441C2.235 3.1475 2.588 3.0005 3 3H15C15.4125 3 15.7657 3.147 16.0597 3.441C16.3538 3.735 16.5005 4.088 16.5 4.5V13.5C16.5 13.9125 16.3533 14.2657 16.0597 14.5597C15.7662 14.8538 15.413 15.0005 15 15H3Z" fill="#747476"/>
</svg>
