<svg width="30" height="30" viewBox="0 0 30 30" fill="none" xmlns="http://www.w3.org/2000/svg">
<path fill-rule="evenodd" clip-rule="evenodd" d="M14.887 3.7218C15.0729 3.72192 15.2563 3.76378 15.4238 3.84431C15.5913 3.92483 15.7386 4.04195 15.8547 4.18703L20.8171 10.39C20.925 10.5164 21.0064 10.6631 21.0565 10.8216C21.1066 10.98 21.1244 11.1469 21.1087 11.3124C21.0931 11.4778 21.0444 11.6384 20.9655 11.7847C20.8866 11.9309 20.7791 12.0598 20.6494 12.1637C20.5197 12.2677 20.3705 12.3445 20.2105 12.3896C20.0506 12.4347 19.8832 12.4472 19.7184 12.4264C19.5535 12.4056 19.3945 12.3519 19.2508 12.2685C19.1071 12.1851 18.9816 12.0736 18.8818 11.9407L16.1276 8.49809V17.3684C16.1276 17.6974 15.9969 18.0129 15.7643 18.2456C15.5316 18.4782 15.2161 18.6089 14.887 18.6089C14.558 18.6089 14.2425 18.4782 14.0098 18.2456C13.7771 18.0129 13.6464 17.6974 13.6464 17.3684V8.49809L10.8923 11.942C10.7925 12.0749 10.667 12.1863 10.5233 12.2697C10.3796 12.3532 10.2206 12.4069 10.0557 12.4277C9.89084 12.4485 9.72347 12.4359 9.56354 12.3908C9.4036 12.3457 9.25437 12.2689 9.12468 12.165C8.995 12.0611 8.88752 11.9322 8.80861 11.7859C8.72971 11.6397 8.68099 11.4791 8.66535 11.3136C8.6497 11.1482 8.66746 10.9813 8.71756 10.8228C8.76766 10.6644 8.84908 10.5176 8.95699 10.3912L13.9194 4.18827C14.0354 4.04297 14.1826 3.92561 14.3501 3.84487C14.5176 3.76413 14.7011 3.72207 14.887 3.7218ZM11.1653 17.3684V16.1278H6.20287C5.54482 16.1278 4.91372 16.3892 4.4484 16.8545C3.98309 17.3198 3.72168 17.9509 3.72168 18.6089V23.5713C3.72168 24.2294 3.98309 24.8605 4.4484 25.3258C4.91372 25.7911 5.54482 26.0525 6.20287 26.0525H23.5712C24.2293 26.0525 24.8604 25.7911 25.3257 25.3258C25.791 24.8605 26.0524 24.2294 26.0524 23.5713V18.6089C26.0524 17.9509 25.791 17.3198 25.3257 16.8545C24.8604 16.3892 24.2293 16.1278 23.5712 16.1278H18.6088V17.3684C18.6088 18.3554 18.2167 19.3021 17.5187 20.0001C16.8208 20.698 15.8741 21.0901 14.887 21.0901C13.9 21.0901 12.9533 20.698 12.2553 20.0001C11.5574 19.3021 11.1653 18.3554 11.1653 17.3684ZM21.09 19.8495C20.761 19.8495 20.4454 19.9802 20.2128 20.2129C19.9801 20.4456 19.8494 20.7611 19.8494 21.0901C19.8494 21.4192 19.9801 21.7347 20.2128 21.9674C20.4454 22.2 20.761 22.3307 21.09 22.3307H21.1024C21.4314 22.3307 21.747 22.2 21.9797 21.9674C22.2123 21.7347 22.343 21.4192 22.343 21.0901C22.343 20.7611 22.2123 20.4456 21.9797 20.2129C21.747 19.9802 21.4314 19.8495 21.1024 19.8495H21.09Z" fill="#747476"/>
</svg>
