<svg width="26" height="26" viewBox="0 0 26 26" fill="none" xmlns="http://www.w3.org/2000/svg">
<path d="M6.77082 7.58335C6.77082 5.93128 7.42711 4.34686 8.5953 3.17867C9.7635 2.01047 11.3479 1.35419 13 1.35419C14.6521 1.35419 16.2365 2.01047 17.4047 3.17867C18.5729 4.34686 19.2292 5.93128 19.2292 7.58335C19.2292 9.23543 18.5729 10.8198 17.4047 11.988C16.2365 13.1562 14.6521 13.8125 13 13.8125C11.3479 13.8125 9.7635 13.1562 8.5953 11.988C7.42711 10.8198 6.77082 9.23543 6.77082 7.58335ZM12.7812 15.4494C12.8278 15.4424 12.8748 15.4384 12.922 15.4375H13.078C13.1257 15.4375 13.1726 15.4415 13.2188 15.4494L21.1217 16.8394L21.1629 16.848C22.6189 17.1839 24.1832 18.1079 24.4877 19.903L24.492 19.9344L24.6155 20.8845V20.8867C24.9015 23.0631 23.1757 24.6459 21.138 24.6459C21.093 24.645 21.0482 24.6414 21.0037 24.635H4.86199C2.82424 24.635 1.09741 23.0512 1.38449 20.8737L1.50799 19.9323L1.51341 19.8998C1.81674 18.1372 3.39407 17.1611 4.84682 16.8459L4.87824 16.8394L12.7812 15.4494Z" fill="#636B2F"/>
</svg>
