<svg width="26" height="26" viewBox="0 0 26 26" fill="none" xmlns="http://www.w3.org/2000/svg">
<path d="M21.15 23.8225H4.86205C3.2338 23.8225 1.97713 22.594 2.19055 20.9799L2.31404 20.0384C2.53829 18.7384 3.7278 17.9205 5.01913 17.6399L12.922 16.25H13.078L20.981 17.6399C22.294 17.9433 23.4618 18.7157 23.686 20.0384L23.8095 20.9918C24.023 22.6059 22.7663 23.8334 21.138 23.8334L21.15 23.8225ZM18.4167 7.58335C18.4167 9.01994 17.846 10.3977 16.8302 11.4135C15.8144 12.4293 14.4366 13 13 13C11.5635 13 10.1857 12.4293 9.16988 11.4135C8.15406 10.3977 7.58338 9.01994 7.58338 7.58335C7.58338 6.14676 8.15406 4.76901 9.16988 3.75319C10.1857 2.73737 11.5635 2.16669 13 2.16669C14.4366 2.16669 15.8144 2.73737 16.8302 3.75319C17.846 4.76901 18.4167 6.14676 18.4167 7.58335Z" stroke="#999999" stroke-width="1.5" stroke-linecap="round" stroke-linejoin="round"/>
</svg>
