<svg width="30" height="30" viewBox="0 0 30 30" fill="none" xmlns="http://www.w3.org/2000/svg">
<path d="M16.25 20C16.25 20.6904 15.6904 21.25 15 21.25C14.3096 21.25 13.75 20.6904 13.75 20C13.75 19.3096 14.3096 18.75 15 18.75C15.6904 18.75 16.25 19.3096 16.25 20Z" fill="#FD7E14"/>
<path fill-rule="evenodd" clip-rule="evenodd" d="M9.45621 2.86612C9.69063 2.6317 10.0086 2.5 10.3401 2.5L19.6599 2.5C19.9914 2.5 20.3094 2.6317 20.5438 2.86612L27.1339 9.45621C27.3683 9.69063 27.5 10.0086 27.5 10.3401V19.6599C27.5 19.9914 27.3683 20.3094 27.1339 20.5438L20.5438 27.1339C20.3094 27.3683 19.9914 27.5 19.6599 27.5H10.3401C10.0086 27.5 9.69063 27.3683 9.45621 27.1339L2.86612 20.5438C2.6317 20.3094 2.5 19.9914 2.5 19.6599L2.5 10.3401C2.5 10.0086 2.6317 9.69063 2.86612 9.45621L9.45621 2.86612ZM10.8579 5L5 10.8579L5 19.1421L10.8579 25H19.1421L25 19.1421V10.8579L19.1421 5L10.8579 5ZM15 8.75C15.6904 8.75 16.25 9.30964 16.25 10V15C16.25 15.6904 15.6904 16.25 15 16.25C14.3096 16.25 13.75 15.6904 13.75 15V10C13.75 9.30964 14.3096 8.75 15 8.75Z" fill="#FD7E14"/>
</svg>
